<?xml version="1.0" encoding="UTF-8" standalone="no"?>
<svg width="68px" height="64px" viewBox="0 0 68 64" version="1.1" xmlns="http://www.w3.org/2000/svg" xmlns:xlink="http://www.w3.org/1999/xlink">
    <!-- Generator: Sketch 3.6.1 (26313) - http://www.bohemiancoding.com/sketch -->
    <title>earphones57</title>
    <desc>Created with Sketch.</desc>
    <defs>
        <path id="path-1" d="M0,0.0107471673 L67.796415,0.0107471673 L67.796415,63.6861016 L0,63.6861016 L0,0.0107471673 Z"></path>
    </defs>
    <g id="Page-1" stroke="none" stroke-width="1" fill="none" fill-rule="evenodd">
        <g id="mens-categories" transform="translate(-30.000000, -107.000000)">
            <rect id="Rectangle-23" x="0" y="73" width="125.74184" height="150"></rect>
            <g id="earphones57" transform="translate(30.000000, 107.000000)">
                <mask id="mask-2" fill="white">
                    <use xlink:href="#path-1"></use>
                </mask>
                <g id="Clip-2"></g>
                <path d="M67.5809192,33.7547032 C67.5809192,15.147595 52.4225017,0.00913509224 33.7911322,0.00913509224 C15.1584175,0.00913509224 0,15.147595 0,33.7547032 C0,37.2778933 0.54237132,40.7457356 1.60881969,44.068491 L1.60881969,51.144426 C1.60881969,54.4682562 4.35807193,57.2421001 7.97845429,57.8329256 L7.97845429,58.4995187 C7.97845429,61.354235 10.6120222,63.6766978 13.8509152,63.6766978 C17.0890011,63.6766978 19.7233761,61.354235 19.7233761,58.4995187 L19.7233761,36.677664 C19.7233761,33.821873 17.0890011,31.4994101 13.8509152,31.4994101 C12.3376024,31.4994101 10.956923,32.0072138 9.91441859,32.8385072 C10.3986787,20.1033826 20.9216508,9.89061811 33.7911322,9.89061811 C46.6595374,9.89061811 57.1833166,20.1033826 57.6667696,32.8395819 C56.6242653,32.0072138 55.2433168,31.4994101 53.730004,31.4994101 C50.491111,31.4994101 47.8575431,33.821873 47.8575431,36.677664 L47.8575431,58.4995187 C47.8575431,61.354235 50.491111,63.6766978 53.730004,63.6766978 C56.9678209,63.6766978 59.6024649,61.354235 59.6024649,58.4995187 L59.6024649,57.8329256 C63.2228473,57.2421001 65.9720995,54.4682562 65.9720995,51.144426 L65.9720995,44.0706405 C67.0388169,40.7465416 67.5809192,37.2778933 67.5809192,33.7547032 L67.5809192,33.7547032 Z M4.62199369,51.144426 L4.62199369,44.0327567 C4.62199369,42.335779 6.03549513,40.8956585 7.97845429,40.4098866 L7.97845429,54.7662214 C6.03549513,54.2812555 4.62199369,52.840329 4.62199369,51.144426 L4.62199369,51.144426 Z M10.9913593,36.677664 C10.9913593,35.5021926 12.3010138,34.509423 13.8509152,34.509423 C15.4000095,34.509423 16.709395,35.5021926 16.709395,36.677664 L16.709395,58.4995187 C16.709395,59.6749901 15.4000095,60.6677597 13.8509152,60.6677597 C12.3010138,60.6677597 10.9913593,59.6749901 10.9913593,58.4995187 L10.9913593,36.677664 Z M33.7911322,6.88167993 C18.9531335,6.88167993 6.88133612,18.9375836 6.88133612,33.7547032 C6.88133612,35.016152 6.97173134,36.2778694 7.14606498,37.5205106 C5.74332487,37.8929 4.50846159,38.601407 3.56146405,39.5374853 C3.20015221,37.6411476 3.01290496,35.7080009 3.01290496,33.7547032 C3.01290496,16.8069577 16.8199677,3.01834195 33.7911322,3.01834195 C50.7612205,3.01834195 64.5680142,16.8069577 64.5680142,33.7547032 C64.5680142,35.7080009 64.381036,37.6411476 64.0194552,39.5374853 C63.0735337,38.601407 61.8378634,37.8929 60.4348542,37.5205106 C60.6091879,36.2767947 60.6995831,35.0150772 60.6995831,33.7547032 C60.6995831,18.9375836 48.6277857,6.88167993 33.7911322,6.88167993 L33.7911322,6.88167993 Z M56.5895599,58.4995187 C56.5895599,59.6749901 55.2801744,60.6677597 53.730004,60.6677597 C52.1798336,60.6677597 50.8704481,59.6749901 50.8704481,58.4995187 L50.8704481,36.677664 C50.8704481,35.5021926 52.1798336,34.509423 53.730004,34.509423 C55.2801744,34.509423 56.5895599,35.5021926 56.5895599,36.677664 L56.5895599,58.4995187 Z M62.9591946,51.144426 C62.9591946,52.8414037 61.5456931,54.2812555 59.6024649,54.7672961 L59.6024649,40.4098866 C61.5456931,40.8956585 62.9591946,42.335779 62.9591946,44.0327567 L62.9591946,51.144426 Z" id="Fill-1" fill="#000000" mask="url(#mask-2)"></path>
            </g>
        </g>
    </g>
</svg>