<?xml version="1.0" encoding="UTF-8" standalone="no"?>
<svg width="59px" height="70px" viewBox="0 0 59 70" version="1.1" xmlns="http://www.w3.org/2000/svg" xmlns:xlink="http://www.w3.org/1999/xlink">
    <!-- Generator: Sketch 3.6.1 (26313) - http://www.bohemiancoding.com/sketch -->
    <title>nylon-jacket</title>
    <desc>Created with Sketch.</desc>
    <defs>
        <path id="path-1" d="M0.012967033,0.056130031 L59,0.056130031 L59,69.8394118 L0.012967033,69.8394118 L0.012967033,0.056130031 Z"></path>
    </defs>
    <g id="Page-1" stroke="none" stroke-width="1" fill="none" fill-rule="evenodd">
        <g id="mens-categories" transform="translate(-158.000000, -104.000000)">
            <g id="nylon-jacket" transform="translate(158.000000, 104.000000)">
                <path d="M13.7251722,50.8689783 C13.2598718,50.7623529 12.9603333,50.3085449 13.0608278,49.8404334 L15.7934139,37.0024768 C15.893044,36.5350155 16.3531575,36.2355108 16.8199707,36.3360681 C17.2859194,36.4359752 17.5839451,36.8965015 17.484315,37.3648297 L14.7517289,50.2019195 C14.6646337,50.6091331 14.3017729,51.0009598 13.7251722,50.8689783 L13.7251722,50.8689783 Z" id="Fill-1" fill="#000000"></path>
                <g id="Group-5">
                    <mask id="mask-2" fill="white">
                        <use xlink:href="#path-1"></use>
                    </mask>
                    <g id="Clip-3"></g>
                    <path d="M44.0541978,50.2019195 L41.3205311,37.3648297 C41.2209011,36.8965015 41.5189267,36.4359752 41.9857399,36.3360681 C42.4519048,36.2355108 42.9120183,36.5350155 43.0116484,37.0024768 L45.7450989,49.8404334 C45.8447289,50.3085449 45.5449744,50.7597523 45.0798901,50.8689783 C44.5733114,50.9875232 44.1402125,50.6091331 44.0541978,50.2019195 L44.0541978,50.2019195 Z" id="Fill-2" fill="#000000" mask="url(#mask-2)"></path>
                    <path d="M55.8172418,26.4645511 C53.3420513,17.2648607 50.0750073,11.5567183 50.0369707,11.5133746 C49.9382051,11.4017647 47.7029048,8.89845201 43.7367216,7.83176471 C43.3695385,3.1595356 37.7031612,0.056130031 29.4020989,0.056130031 C21.1019011,0.056130031 15.4355238,3.1595356 15.0683407,7.83176471 C11.103022,8.89845201 8.86664103,11.4017647 8.76873993,11.5133746 C8.7307033,11.5567183 5.46279487,17.2657276 2.9876044,26.4645511 C0.708216117,34.938452 -1.44279853,48.3563467 1.25953114,64.1590093 C1.26126007,64.1683282 1.97876923,69.0427554 1.97876923,69.0427554 C2.04122711,69.4677399 2.4051685,69.7834985 2.83394505,69.7834985 L8.73156777,69.7834985 C9.16228938,69.7834985 9.52687912,69.465356 9.58760806,69.0377709 L10.2597326,64.2563158 L10.9865348,62.7401548 L11.1890366,63.6282663 C11.2793736,64.0226935 11.6290513,64.3020433 12.0325421,64.3020433 L46.7725201,64.3020433 C47.176011,64.3020433 47.5254725,64.0226935 47.6158095,63.6282663 L47.8185275,62.7401548 L48.5453297,64.2563158 L49.2172381,69.0377709 C49.2781832,69.465356 49.6427729,69.7834985 50.0732784,69.7834985 L55.9709011,69.7834985 C56.3998938,69.7834985 56.763619,69.4677399 56.8260769,69.0427554 C56.8260769,69.0427554 57.5438022,64.1683282 57.5455311,64.1590093 C60.2476447,48.3563467 58.09663,34.938452 55.8172418,26.4645511 L55.8172418,26.4645511 Z M43.5906264,9.59520124 C46.1003956,10.3443963 47.7897839,11.744613 48.4398645,12.359226 L46.5108022,20.8831889 L30.2674322,20.8831889 L30.2674322,17.446904 L32.0460769,13.766161 C33.9278095,13.9109288 39.5604725,14.119195 42.2491868,11.7199071 C42.9195824,11.1206811 43.3669451,10.4096285 43.5906264,9.59520124 L43.5906264,9.59520124 Z M12.2748095,22.616935 L28.53763,22.616935 L28.53763,57.5202786 L11.6128425,57.5202786 C11.0228425,53.9166873 8.62437363,37.1851703 12.2748095,22.616935 L12.2748095,22.616935 Z M11.9657619,59.2540248 L28.5384945,59.2540248 L28.5384945,60.0439628 L12.1464359,60.0439628 L11.9657619,59.2540248 Z M29.4020989,15.2610836 L28.0894029,12.5436533 C28.0539597,12.4498142 28.0049011,12.359226 27.9357436,12.2788235 C27.5305238,11.8113622 27.1192527,11.3120433 26.7224615,10.8075232 L32.0815201,10.8075232 C31.6847289,11.3120433 31.273674,11.8113622 30.8693187,12.2788235 C30.8001612,12.359226 30.7502381,12.4498142 30.7156593,12.5436533 L29.4020989,15.2610836 Z M25.4350513,9.07377709 C24.5774982,7.84195046 23.9721538,6.77439628 23.9721538,6.3106192 C23.9721538,5.33690402 26.2050769,4.65727554 29.4020989,4.65727554 C32.5999853,4.65727554 34.8329084,5.33690402 34.8329084,6.3106192 C34.8329084,6.77439628 34.2275641,7.84281734 33.3697949,9.07377709 L25.4350513,9.07377709 Z M29.4020989,1.78987616 C36.8360989,1.78987616 42.0280989,4.47436533 42.0280989,8.31851393 C42.0280989,9.17693498 41.724022,9.86609907 41.1003077,10.4239319 C39.4007619,11.9409598 35.7014835,12.174582 33.2710293,12.0985139 C34.65137,10.3756037 36.5618462,7.73532508 36.5618462,6.3106192 C36.5618462,4.12566563 34.019011,2.92352941 29.4020989,2.92352941 C24.7860513,2.92352941 22.2432161,4.12566563 22.2432161,6.3106192 C22.2432161,7.73532508 24.1536923,10.3756037 25.5331685,12.0985139 C23.1024982,12.174582 19.4040842,11.9409598 17.7047546,10.4239319 C17.0808242,9.86609907 16.7769634,9.17693498 16.7769634,8.31851393 C16.7769634,4.47436533 21.9687473,1.78987616 29.4020989,1.78987616 L29.4020989,1.78987616 Z M15.2142198,9.59520124 C15.4381172,10.4096285 15.8863443,11.121548 16.5565238,11.7199071 C19.2445897,14.119195 24.8770366,13.9109288 26.7587692,13.766161 L28.5384945,17.446904 L28.5384945,20.8831889 L12.2951245,20.8831889 L10.3651978,12.3566254 C11.010956,11.7428793 12.6910513,10.3469969 15.2142198,9.59520124 L15.2142198,9.59520124 Z M7.98034432,68.0497523 L3.5801978,68.0497523 L3.47559707,67.3311146 L8.0817033,67.3311146 L7.98034432,68.0497523 Z M8.32483516,65.5973684 L3.22057875,65.5973684 L3.11597802,64.8793808 L8.42597802,64.8793808 L8.32483516,65.5973684 Z M8.87420513,63.1456347 L2.8432381,63.1456347 C0.384904762,47.9948607 2.45076923,35.1426006 4.64068498,26.979257 C6.17792674,21.2470588 7.98445055,16.9753251 9.10307326,14.6143963 L10.7146593,21.7355418 C6.47919414,38.0318885 9.77584615,57.1063467 10.0215714,58.4718885 C10.0258938,58.5082972 10.369304,60.0287926 10.369304,60.0287926 L8.87420513,63.1456347 Z M12.7213077,62.5691641 L12.5414982,61.777709 L28.53763,61.777709 L28.53763,62.5691641 L12.7213077,62.5691641 Z M46.0835385,62.5691641 L30.2674322,62.5691641 L30.2674322,61.777709 L46.2642125,61.777709 L46.0835385,62.5691641 Z M46.6592747,60.0439628 L30.2665678,60.0439628 L30.2665678,59.2540248 L46.8390842,59.2540248 L46.6592747,60.0439628 Z M47.1920037,57.5202786 L30.2665678,57.5202786 L30.2665678,22.616935 L46.5302527,22.616935 C50.1804725,37.1851703 47.7822198,53.9166873 47.1920037,57.5202786 L47.1920037,57.5202786 Z M55.2246484,68.0497523 L50.8247179,68.0497523 L50.7242234,67.3311146 L55.3303297,67.3311146 L55.2246484,68.0497523 Z M55.5842674,65.5973684 L50.4802271,65.5973684 L50.3788681,64.8793808 L55.6890842,64.8793808 L55.5842674,65.5973684 Z M55.9616081,63.1456347 L49.9315055,63.1456347 L48.4364066,60.0287926 C48.4364066,60.0287926 48.780033,58.5082972 48.7834908,58.4718885 C49.029,57.1063467 52.325652,38.0318885 48.0904029,21.7355418 L49.7026374,14.6126625 C50.8154249,16.9618885 52.6117912,21.2056656 54.1483846,26.9166254 C56.3475934,35.0925387 58.4242637,47.9677709 55.9616081,63.1456347 L55.9616081,63.1456347 Z" id="Fill-4" fill="#000000" mask="url(#mask-2)"></path>
                </g>
            </g>
        </g>
    </g>
</svg>