<?xml version="1.0" encoding="UTF-8" standalone="no"?>
<svg width="49px" height="73px" viewBox="0 0 49 73" version="1.1" xmlns="http://www.w3.org/2000/svg" xmlns:xlink="http://www.w3.org/1999/xlink">
    <!-- Generator: Sketch 3.6.1 (26313) - http://www.bohemiancoding.com/sketch -->
    <title>Group 2</title>
    <desc>Created with Sketch.</desc>
    <defs></defs>
    <g id="Page-1" stroke="none" stroke-width="1" fill="none" fill-rule="evenodd">
        <g id="mens-categories" transform="translate(-288.000000, -104.000000)" fill="#000000">
            <g id="Group-2" transform="translate(288.500000, 104.250046)">
                <path d="M21.9520681,53.0969177 C12.5574199,53.0969177 4.9148303,45.4541727 4.9148303,36.0605345 C4.9148303,26.6656955 12.5574199,19.0229505 21.9520681,19.0229505 C31.3455153,19.0229505 38.9893058,26.6656955 38.9893058,36.0605345 C38.9893058,45.4541727 31.3467162,53.0969177 21.9520681,53.0969177 L21.9520681,53.0969177 Z M21.9520681,21.4247244 C13.8813709,21.4247244 7.31655544,27.9908742 7.31655544,36.0605345 C7.31655544,44.1301948 13.8825718,50.6951438 21.9520681,50.6951438 C30.0215643,50.6951438 36.5875807,44.1301948 36.5875807,36.0605345 C36.5875807,27.9908742 30.0215643,21.4247244 21.9520681,21.4247244 L21.9520681,21.4247244 Z" id="Fill-1"></path>
                <path d="M46.5661482,31.3767751 L43.3988732,31.3767751 C43.0224028,29.6526016 42.4441874,28.0037838 41.687644,26.4570413 L43.1289793,25.0168776 C44.4847532,23.6598753 44.4847532,21.4529453 43.1277785,20.095943 C41.7723048,18.7404418 39.5651194,18.7404418 38.2084449,20.095943 L37.611316,20.693084 C37.4963334,20.5756973 37.3792493,20.4583106 37.2606641,20.3436259 L35.4371543,10.9520893 C35.3269752,10.3879726 34.8331204,9.98117216 34.2585077,9.98117216 L33.6217503,9.98117216 L30.1272402,1.00604307 C29.9477113,0.544001803 29.5030919,0.240477618 29.0083365,0.240477618 L14.8957996,0.240477618 C14.4010442,0.240477618 13.9564248,0.544001803 13.7771961,1.00604307 L10.2835866,9.98117216 L9.6456284,9.98117216 C9.07101566,9.98117216 8.57716093,10.3879726 8.46698179,10.9520893 L6.64347197,20.3436259 C2.54823038,24.3332727 0,29.9047879 0,36.0605345 C0,42.2162812 2.54823038,47.7868957 6.64347197,51.7777434 L8.46698179,61.1677789 C8.57716093,61.7318956 9.07101566,62.1398969 9.6456284,62.1398969 L10.2835866,62.1398969 L13.7771961,71.115026 C13.9564248,71.5758664 14.4010442,71.8808917 14.8957996,71.8808917 L29.0083365,71.8808917 C29.5030919,71.8808917 29.9477113,71.5758664 30.1272402,71.115026 L33.6205495,62.1398969 L34.2585077,62.1398969 C34.8331204,62.1398969 35.3269752,61.7330965 35.4371543,61.1677789 L37.2606641,51.7777434 C37.3792493,51.6627584 37.4954328,51.5453717 37.611316,51.4282853 L38.2072441,52.0251261 C38.8860316,52.7030268 39.776171,53.0419771 40.6675113,53.0419771 C41.5588515,53.0419771 42.4489909,52.7030268 43.1277785,52.0251261 C43.7846503,51.3682409 44.1470106,50.4945956 44.1470106,49.5648089 C44.1470106,48.6347219 43.7846503,47.7610766 43.1277785,47.1041915 L41.687644,45.6652286 C42.4441874,44.1172853 43.0224028,42.4684675 43.3988732,40.7445942 L46.5649474,40.7445942 C47.2287241,40.7445942 47.7658099,40.2062966 47.7658099,39.5437072 L47.7658099,32.5776621 C47.7670108,31.9138718 47.2287241,31.3767751 46.5661482,31.3767751 L46.5661482,31.3767751 Z M15.7168894,2.64225158 L28.187547,2.64225158 L31.0440988,9.98117216 L12.8600373,9.98117216 L15.7168894,2.64225158 Z M10.6354394,12.3829461 L33.2674959,12.3829461 L34.3512743,17.9547615 C30.8201379,15.52927 26.5492702,14.1080203 21.9520681,14.1080203 C17.3539653,14.1080203 13.0839982,15.52927 9.55406263,17.9547615 L10.6354394,12.3829461 Z M28.187547,69.4791177 L15.7168894,69.4791177 L12.8600373,62.1398969 L31.0440988,62.1398969 L28.187547,69.4791177 Z M33.2686967,59.738123 L10.6354394,59.738123 L9.55406263,54.1666078 C13.0839982,56.5917991 17.3551661,58.0130488 21.9520681,58.0130488 C26.5492702,58.0130488 30.8201379,56.5917991 34.3500735,54.1666078 L33.2686967,59.738123 Z M21.9520681,55.6112748 C11.1713243,55.6112748 2.40172515,46.8402965 2.40172515,36.0605345 C2.40172515,25.2795717 11.1713243,16.5097942 21.9520681,16.5097942 C32.7316109,16.5097942 41.502411,25.2795717 41.502411,36.0605345 C41.502411,46.8414974 32.7316109,55.6112748 21.9520681,55.6112748 L21.9520681,55.6112748 Z M41.7452854,49.5648089 C41.7452854,49.8521211 41.6327045,50.1229211 41.4297588,50.325871 C41.0100573,50.745581 40.3261661,50.745581 39.9064646,50.3270719 L39.2003574,49.6209504 C39.6506809,49.0487277 40.0727841,48.4539884 40.4657663,47.8394345 L41.4297588,48.8034465 C41.6339054,49.0063964 41.7452854,49.2774967 41.7452854,49.5648089 L41.7452854,49.5648089 Z M41.4297588,23.3176225 L40.4669672,24.2816346 C40.0727841,23.6658798 39.6506809,23.0723414 39.2003574,22.5001187 L39.9064646,21.7942974 C40.3261661,21.3742872 41.0100573,21.3742872 41.4297588,21.7942974 C41.8494602,22.2140074 41.8494602,22.8976123 41.4297588,23.3176225 L41.4297588,23.3176225 Z M45.3652856,38.3428203 L43.7846503,38.3428203 C43.8621059,37.5922659 43.9041361,36.8312038 43.9041361,36.0605345 C43.9041361,35.2901655 43.8621059,34.5291034 43.7846503,33.7785491 L45.3652856,33.7785491 L45.3652856,38.3428203 Z" id="Fill-2"></path>
                <path d="M29.0518678,38.0447001 L14.8525685,38.0447001 C14.1887917,38.0447001 13.6517059,37.5067027 13.6517059,36.8438131 L13.6517059,29.8777679 C13.6517059,29.2139776 14.1887917,28.6768809 14.8525685,28.6768809 L29.0518678,28.6768809 C29.7144437,28.6768809 30.2527304,29.2139776 30.2527304,29.8777679 L30.2527304,36.8438131 C30.2527304,37.5067027 29.7144437,38.0447001 29.0518678,38.0447001 L29.0518678,38.0447001 Z M16.0534311,35.6429261 L27.8510052,35.6429261 L27.8510052,31.0786549 L16.0534311,31.0786549 L16.0534311,35.6429261 Z" id="Fill-3"></path>
                <path d="M29.0518678,43.6225199 L14.8525685,43.6225199 C14.1887917,43.6225199 13.6517059,43.0854232 13.6517059,42.4216329 C13.6517059,41.7578426 14.1887917,41.2207459 14.8525685,41.2207459 L29.0518678,41.2207459 C29.7144437,41.2207459 30.2527304,41.7578426 30.2527304,42.4216329 C30.2527304,43.0854232 29.7144437,43.6225199 29.0518678,43.6225199 L29.0518678,43.6225199 Z" id="Fill-4"></path>
            </g>
        </g>
    </g>
</svg>