<?xml version="1.0" encoding="UTF-8" standalone="no"?>
<svg width="70px" height="48px" viewBox="0 0 70 48" version="1.1" xmlns="http://www.w3.org/2000/svg" xmlns:xlink="http://www.w3.org/1999/xlink">
    <!-- Generator: Sketch 3.6.1 (26313) - http://www.bohemiancoding.com/sketch -->
    <title>sneaker</title>
    <desc>Created with Sketch.</desc>
    <defs>
        <path id="path-1" d="M0.109253066,0.33030301 L71.0144928,0.33030301 L71.0144928,47.5164473 L0.109253066,47.5164473 L0.109253066,0.33030301 Z"></path>
    </defs>
    <g id="Page-1" stroke="none" stroke-width="1" fill="none" fill-rule="evenodd">
        <g id="mens-categories" transform="translate(-27.000000, -261.000000)">
            <g id="sneaker" transform="translate(27.000000, 261.000000)">
                <g id="Group-3">
                    <mask id="mask-2" fill="white">
                        <use xlink:href="#path-1"></use>
                    </mask>
                    <g id="Clip-2"></g>
                    <path d="M24.8514307,47.1843295 C20.8199926,47.1843295 0.697398737,46.8140997 0.362356001,39.4494315 C0.305908584,38.2298512 0.213043478,37.2298679 0.142028986,36.3859618 C-0.0855815682,33.8415397 -0.242177629,32.1609871 1.37294686,30.5729918 C3.92582683,28.0703113 7.56031215,27.5530786 10.1641769,27.5530786 C10.839725,27.5530786 11.4096618,27.5893756 11.8284653,27.6311172 C12.7243404,26.9432884 14.588926,25.9505645 18.1378298,25.5966684 C18.9845411,24.7818 20.9820513,23.2718434 24.7021182,22.5622364 C25.556113,21.8961858 28.0671126,20.0595559 31.4667038,18.5713775 C34.709699,17.1467189 36.4249721,14.7492998 37.4483092,13.3173818 L37.7833519,12.8582243 C38.444333,11.956243 38.8649573,10.7239587 39.3128948,9.41908035 C40.4509476,6.0724938 41.8238945,1.80577745 48.5101821,2.60612705 C49.8467113,2.76220429 50.9774805,3.30121525 51.9807878,3.7767064 C52.9968413,4.2576421 53.8799703,4.66961344 54.8250093,4.66961344 C55.3457822,4.65509462 56.3545522,3.71137174 56.9663694,3.15239741 C58.53233,1.69144179 60.3878112,0.0108891102 62.7276477,0.381118858 C66.4058343,0.954611996 65.857748,6.35561067 65.2878112,12.0705787 C64.9618729,15.3246078 64.5922334,19.0105716 65.2386473,20.449749 C65.5299889,21.0885768 65.7940171,21.5277709 66.0707915,21.9887432 C66.9666667,23.4841811 67.7423634,24.7818 68.5034931,30.6020294 C68.9587142,32.1972841 71.5480119,42.001113 66.6753252,44.5400905 C63.2538833,46.3259046 57.5927536,46.6943195 53.4393162,46.6943195 C51.6821628,46.6943195 49.8321442,46.6235403 48.1114084,46.4965007 C45.187068,46.2769036 42.697919,46.162568 40.507395,46.162568 C36.8091787,46.162568 34.4693423,46.4747224 31.9929394,46.7941363 L31.8017466,46.8213591 C29.9444444,47.055475 27.540877,47.1843295 24.8514307,47.1843295 L24.8514307,47.1843295 Z M10.1641769,30.4532116 C8.4780379,30.4532116 5.36250465,30.7363285 3.42144184,32.6437376 C2.83147529,33.2244902 2.82419175,33.6999813 3.04451877,36.1318826 C3.1228168,37.0030114 3.2156819,38.0519957 3.27212932,39.3151325 C3.37774062,41.7107367 12.0779264,44.2841964 24.845968,44.2841964 C27.3769974,44.2841964 29.7095504,44.1571568 31.4175399,43.9375598 L31.6087328,43.9085221 C34.1834634,43.5745894 36.616165,43.2569904 40.5001115,43.2569904 C42.7689335,43.2569904 45.3236343,43.3622518 48.3171683,43.5891082 C49.9814567,43.7161479 51.7458937,43.7814825 53.4320327,43.7814825 C58.8364177,43.7814825 63.0626904,43.1353953 65.3169454,41.9593714 C67.3800074,40.8813495 66.7463397,34.9613032 65.6720178,31.2971176 C65.6447046,31.219079 65.637421,31.1482998 65.622854,31.0775206 C64.9327388,25.7600051 64.3282051,24.7527624 63.5670754,23.4769216 C63.2684504,22.9814671 62.9334077,22.4279374 62.5783352,21.6330323 C61.604162,19.4933222 61.9810851,15.7420237 62.3798588,11.772943 C62.6347826,9.19948329 63.1755853,3.84022621 62.2797101,3.24495485 C62.2086957,3.23043603 62.1449647,3.23043603 62.0812337,3.23043603 C61.1416574,3.23043603 59.9690078,4.3139025 58.9365663,5.26488479 C57.7001858,6.42094533 56.5329989,7.5044118 55.0744705,7.56248705 L54.8177258,7.56793161 C53.2189892,7.56793161 51.8952062,6.94543747 50.7207358,6.3919077 C49.8467113,5.97449181 49.0218506,5.58429869 48.1532887,5.47722244 C47.7417689,5.43548085 47.3575622,5.40644323 47.0006689,5.40644323 C43.8997027,5.40644323 43.138573,7.1922573 42.0587886,10.3482844 C41.5598662,11.8001658 41.0481977,13.3046778 40.1231884,14.5659998 L39.8172798,14.9906751 C38.6937941,16.5587069 36.616165,19.4788033 32.6338907,21.2228758 C28.8919732,22.8598721 26.2826459,25.0086565 26.2535117,25.0358793 C26.0550353,25.1919565 25.8201412,25.3062922 25.5633965,25.3480338 C21.5028242,26.0358625 20.0224452,27.8089727 19.9659978,27.8870113 C19.7092531,28.1991658 19.3250465,28.404244 18.9280936,28.4387262 C14.7018209,28.7581401 13.4290227,30.0702779 13.4144556,30.0847967 C13.0812337,30.4459522 12.5549981,30.6582898 12.0779264,30.5729918 C12.0779264,30.5729918 11.2949461,30.4532116 10.1641769,30.4532116 L10.1641769,30.4532116 Z" id="Fill-1" fill="#000000" mask="url(#mask-2)"></path>
                </g>
                <path d="M28.3584541,39.9739236 C26.3736901,39.9739236 24.4180602,39.9176632 22.2493868,39.7688454 C16.857748,39.3931711 4.03325901,38.1590719 1.32378298,34.670927 C0.817577109,34.0266546 0.626384244,33.2952694 0.761129692,32.5584396 C0.861278335,31.9849464 1.4148272,31.6092721 1.99204757,31.7072741 C2.56744705,31.8143504 2.95165366,32.3678801 2.84422148,32.9413733 C2.83147529,33.0048931 2.80962467,33.1391921 2.99535489,33.373308 C4.44477889,35.2389755 12.241806,36.9612698 22.3914158,37.656358 C27.4206986,38.0029947 31.0897808,37.8614363 37.1715347,37.620061 C40.5365292,37.485762 44.7318469,37.3224253 50.2090673,37.2080896 C59.2206243,37.0175302 63.0335563,34.975822 64.6486808,33.2952694 C65.843181,32.0484662 65.8358974,30.9704443 65.8358974,30.9287027 C65.8213304,30.3533948 66.2710888,29.8651996 66.8464883,29.836162 C67.4510219,29.8216432 67.906243,30.2408739 67.9481234,30.8071077 C67.9626904,30.999482 68.0264214,32.748999 66.2911185,34.6364448 C63.588926,37.5783194 58.1900037,39.1517958 50.2454849,39.3223919 C44.7828317,39.4349127 40.6075437,39.5982493 37.2498328,39.7325484 C33.8283909,39.8668474 31.0679301,39.9739236 28.3584541,39.9739236 L28.3584541,39.9739236 Z" id="Fill-4" fill="#000000"></path>
                <path d="M22.4132664,46.3186452 C22.1929394,46.3186452 21.963508,46.247866 21.7723151,46.1063075 C21.2824972,45.757856 21.175065,45.0772866 21.522854,44.5890915 C22.9886659,42.5619022 21.8506132,39.4566909 21.8360461,39.4203939 C21.6302861,38.8614195 21.9143441,38.2298512 22.4769974,38.0175135 C23.0378298,37.8124353 23.664214,38.0882927 23.8845411,38.6545264 C23.948272,38.8251225 25.4559643,42.8795012 23.2945745,45.8576729 C23.0888146,46.162568 22.7464883,46.3186452 22.4132664,46.3186452 L22.4132664,46.3186452 Z" id="Fill-5" fill="#000000"></path>
                <path d="M15.7415459,39.0174968 C15.5485321,39.0174968 15.3573393,38.9666809 15.1861761,38.868679 C9.95841695,35.7707271 10.4482349,31.1610038 11.4442586,29.162852 C11.7082869,28.6238411 12.3619844,28.404244 12.9027871,28.6655827 C13.4435897,28.9359956 13.6639168,29.5802679 13.3998885,30.1192789 C13.2086957,30.5312502 11.6227053,34.217214 16.3023783,36.9884926 C16.8213304,37.3006471 16.9924935,37.9666977 16.6793014,38.4857452 C16.480825,38.8251225 16.118469,39.0174968 15.7415459,39.0174968 L15.7415459,39.0174968 Z" id="Fill-6" fill="#000000"></path>
                <path d="M17.9739502,32.7217762 C17.8810851,32.7217762 17.7955035,32.6854792 17.724489,32.6219594 C15.5412486,30.6238077 16.495392,27.2627023 16.5445559,27.1211439 C16.6010033,26.9287696 16.8013006,26.8162488 16.9924935,26.8725092 C17.1855072,26.9287696 17.2984021,27.1284033 17.2419547,27.3262221 C17.2346711,27.3552597 16.3733928,30.4023958 18.2234114,32.0902078 C18.3727239,32.2317663 18.3800074,32.4586227 18.245262,32.6074406 C18.166964,32.6782198 18.0668153,32.7217762 17.9739502,32.7217762 L17.9739502,32.7217762 Z" id="Fill-7" fill="#000000"></path>
                <path d="M20.4630992,31.7072741 C20.3502044,31.7072741 20.2427722,31.6582731 20.1644742,31.5584563 C17.9666667,28.453245 19.6036418,26.4187963 19.6746563,26.3334982 C19.8094017,26.1846804 20.0370123,26.164717 20.1936083,26.2844972 C20.3429208,26.4115369 20.3647715,26.6383933 20.2354887,26.80173 C20.1717577,26.8797686 18.906243,28.5167648 20.7617243,31.1410404 C20.87644,31.2971176 20.8400223,31.5312335 20.67068,31.6437543 C20.6051282,31.6873108 20.5341137,31.7072741 20.4630992,31.7072741 L20.4630992,31.7072741 Z" id="Fill-8" fill="#000000"></path>
                <path d="M19.3960609,34.082915 C18.4291713,34.082915 17.646191,33.3315664 17.6043107,32.3678801 C17.5824601,31.892389 17.7536232,31.4386761 18.0813824,31.0829651 C18.4000372,30.7363285 18.8497956,30.5312502 19.3250465,30.509472 C20.3647715,30.509472 21.1532144,31.2608206 21.1896321,32.2245069 C21.2315124,33.2099713 20.4558157,34.0393586 19.4670754,34.082915 L19.3960609,34.082915 L19.3960609,34.082915 Z M19.3960609,31.2390424 C19.0701226,31.2463018 18.8060944,31.3678969 18.6149015,31.5802345 C18.4218878,31.7853127 18.3217391,32.0557257 18.3363062,32.3388425 C18.3581568,32.9123357 18.8206615,33.3587892 19.3960609,33.3587892 L19.3960609,33.7217595 L19.4397622,33.3587892 C20.0224452,33.3315664 20.4849498,32.8415564 20.4558157,32.2535445 C20.4430695,31.6873108 19.9732813,31.2390424 19.3960609,31.2390424 L19.3960609,31.2390424 Z" id="Fill-9" fill="#000000"></path>
                <path d="M20.0005946,32.3805841 C20.0005946,32.7217762 19.7238201,32.9976337 19.3833148,32.9976337 C19.0409885,32.9976337 18.764214,32.7217762 18.764214,32.3805841 C18.764214,32.0412068 19.0409885,31.7635345 19.3833148,31.7635345 C19.7238201,31.7635345 20.0005946,32.0412068 20.0005946,32.3805841 L20.0005946,32.3805841 Z" id="Fill-10" fill="#000000"></path>
                <path d="M23.4657376,30.4459522 C23.3583055,30.4459522 23.2526942,30.3969512 23.1798588,30.3116532 C20.7489781,27.2336647 21.8797473,24.5821663 21.9289112,24.4696455 C22.0072092,24.2845307 22.2202527,24.206492 22.4059829,24.2845307 C22.5898922,24.3698287 22.6754738,24.5767218 22.5898922,24.7600218 C22.5552954,24.8598386 21.601152,27.1429221 23.7570792,29.8579402 C23.8772575,30.0140175 23.8499443,30.2481334 23.6933482,30.3679136 C23.6223337,30.424174 23.5440357,30.4459522 23.4657376,30.4459522 L23.4657376,30.4459522 Z" id="Fill-11" fill="#000000"></path>
                <path d="M25.7982906,29.2408907 C25.7054255,29.2408907 25.6052768,29.2045936 25.5287997,29.126555 C23.5713489,27.0648835 24.2268673,23.8816336 24.2541806,23.7400751 C24.2978818,23.5477009 24.4963582,23.4279207 24.689372,23.4624028 C24.8878484,23.5059593 25.0080268,23.7037781 24.9661464,23.8961524 C24.9661464,23.9233752 24.3688963,26.8452864 26.060498,28.6311005 C26.1970643,28.7799183 26.1897808,29.0067748 26.0477518,29.1483332 C25.9767373,29.211853 25.8838722,29.2408907 25.7982906,29.2408907 L25.7982906,29.2408907 Z" id="Fill-12" fill="#000000"></path>
                <path d="M24.8951319,31.8143504 C23.9282423,31.8143504 23.145262,31.0557424 23.1033816,30.0993155 C23.066964,29.113851 23.8353772,28.2772044 24.8241174,28.2409074 C25.8620216,28.2409074 26.6522854,28.992256 26.6868822,29.9486828 C26.7305834,30.9341473 25.9621702,31.7707939 24.97343,31.8143504 L24.8951319,31.8143504 L24.8951319,31.8143504 Z M24.8951319,28.9650332 C24.2614641,28.9849966 23.806243,29.4822659 23.8353772,30.0702779 C23.8572278,30.643771 24.3251951,31.0902245 24.8951319,31.0902245 L24.8951319,31.4531949 L24.9442958,31.0829651 C25.5287997,31.0630018 25.9840208,30.5657324 25.9621702,29.9777205 C25.933036,29.4114867 25.4705314,28.9650332 24.8951319,28.9650332 L24.8951319,28.9650332 Z" id="Fill-13" fill="#000000"></path>
                <path d="M25.5215162,30.0920561 C25.5215162,30.4314334 25.2429208,30.7072908 24.9024155,30.7072908 C24.5600892,30.7072908 24.2833148,30.4314334 24.2833148,30.0920561 C24.2833148,29.750864 24.5600892,29.4750065 24.9024155,29.4750065 C25.2429208,29.4750065 25.5215162,29.750864 25.5215162,30.0920561 L25.5215162,30.0920561 Z" id="Fill-14" fill="#000000"></path>
                <path d="M28.8209588,27.9432717 C28.7499443,27.9432717 28.6716462,27.9142341 28.6079153,27.8652331 C26.060498,25.9650833 26.7506132,22.8743909 26.7797473,22.7473513 C26.8289112,22.554977 27.0219249,22.4351968 27.2204013,22.4769384 C27.4134151,22.5204948 27.5335935,22.7183136 27.4917131,22.9161325 C27.462579,23.0232087 26.8871795,25.6747071 29.0412858,27.2844805 C29.1978818,27.4042607 29.2342995,27.6383766 29.1123003,27.7944539 C29.0412858,27.8870113 28.9356745,27.9432717 28.8209588,27.9432717 L28.8209588,27.9432717 Z" id="Fill-15" fill="#000000"></path>
                <path d="M30.8130063,26.5676141 C30.7128577,26.5676141 30.6199926,26.5331319 30.5489781,26.4550933 C28.2091416,24.0504148 28.8209588,21.6130689 28.8500929,21.5059927 C28.8992568,21.3154333 29.0977332,21.2010976 29.2907469,21.2519135 C29.4892233,21.3009145 29.6039391,21.4987333 29.5529543,21.6911076 C29.5329246,21.7818502 29.0412858,23.8525959 31.0679301,25.9505645 C31.21178,26.0993824 31.2044965,26.3262388 31.0624675,26.4696121 C30.991453,26.5331319 30.9058714,26.5676141 30.8130063,26.5676141 L30.8130063,26.5676141 Z" id="Fill-16" fill="#000000"></path>
                <path d="M30.250353,29.3044105 C29.2834634,29.3044105 28.5004831,28.5530619 28.4586027,27.5893756 C28.4367521,27.1138845 28.6079153,26.6601715 28.9283909,26.3062755 C29.2543292,25.9578239 29.6968042,25.7527457 30.172055,25.7309675 L30.1793385,25.7309675 C31.2190635,25.7309675 32.000223,26.4823161 32.0439242,27.4478172 C32.0639539,27.9214935 31.8946117,28.3824658 31.5668525,28.7309173 C31.2463768,29.0848134 30.8057228,29.2898917 30.3213675,29.3044105 L30.250353,29.3044105 L30.250353,29.3044105 Z M30.250353,26.4550933 C29.9244147,26.4696121 29.6603865,26.5893923 29.4691936,26.80173 C29.2761799,27.0068082 29.1760312,27.2772211 29.1833148,27.560338 C29.2124489,28.1338311 29.6749535,28.5820995 30.250353,28.5820995 L30.250353,28.943255 L30.2940543,28.5820995 C30.5781122,28.5675807 30.8421405,28.4459856 31.0333333,28.2409074 C31.2245262,28.0285697 31.3246748,27.7581568 31.3101078,27.47504 C31.290078,26.9015468 30.8275734,26.4550933 30.250353,26.4550933 L30.250353,26.4550933 Z" id="Fill-17" fill="#000000"></path>
                <path d="M30.8421405,27.5821162 C30.8421405,27.9214935 30.5635452,28.1991658 30.2230398,28.1991658 C29.8807135,28.1991658 29.6039391,27.9214935 29.6039391,27.5821162 C29.6039391,27.2409241 29.8807135,26.9650666 30.2230398,26.9650666 C30.5635452,26.9650666 30.8421405,27.2409241 30.8421405,27.5821162 L30.8421405,27.5821162 Z" id="Fill-18" fill="#000000"></path>
                <path d="M33.8283909,24.6819832 C33.7355258,24.6819832 33.6499443,24.647501 33.5789298,24.5821663 C31.1462282,22.3571581 31.8290598,19.5641014 31.858194,19.4497657 C31.9073579,19.2519469 32.1076551,19.1376112 32.298848,19.1884271 C32.4991453,19.2374281 32.6193237,19.4298023 32.5701598,19.6276212 C32.5410256,19.727438 31.9729097,22.1230423 34.0778521,24.0504148 C34.2198811,24.1865287 34.2271646,24.4133851 34.0997027,24.562203 C34.0214047,24.6402416 33.9285396,24.6819832 33.8283909,24.6819832 L33.8283909,24.6819832 Z" id="Fill-19" fill="#000000"></path>
                <path d="M35.6347083,23.5477009 C35.5436641,23.5477009 35.450799,23.5204781 35.387068,23.4424395 C33.7355258,21.8471848 33.5079153,18.9180142 33.4951691,18.7909745 C33.480602,18.5931557 33.6371981,18.4153002 33.8356745,18.4007814 C34.0141211,18.3862626 34.205314,18.5350805 34.2198811,18.7419736 C34.2271646,18.7691963 34.4474916,21.5205115 35.891453,22.9233919 C36.033482,23.0667652 36.0407655,23.2936216 35.8987365,23.4351801 C35.827722,23.5132187 35.7275734,23.5477009 35.6347083,23.5477009 L35.6347083,23.5477009 Z" id="Fill-20" fill="#000000"></path>
                <path d="M35.2377555,26.4623527 C34.2763285,26.4623527 33.4878855,25.7110041 33.4441843,24.7527624 C33.4095875,23.7600385 34.1780007,22.9306513 35.1649201,22.8889097 L35.1722036,22.8889097 C36.2119287,22.8889097 36.9930881,23.6402583 37.0367893,24.6039446 C37.0713861,25.589409 36.3047938,26.4260557 35.3160535,26.4623527 L35.2377555,26.4623527 L35.2377555,26.4623527 Z M35.2377555,23.6112207 C34.6040877,23.6402583 34.1488666,24.1357128 34.1780007,24.7255396 C34.205314,25.2917734 34.6678187,25.7382269 35.2377555,25.7382269 L35.2377555,26.0993824 L35.2869194,25.7382269 C35.8696024,25.7110041 36.332107,25.2209941 36.3047938,24.6329822 C36.2829431,24.0576742 35.813155,23.6112207 35.2377555,23.6112207 L35.2377555,23.6112207 Z" id="Fill-21" fill="#000000"></path>
                <path d="M35.8495726,24.7309842 C35.8495726,25.0649169 35.5709773,25.3407743 35.2304719,25.3407743 C34.8881457,25.3407743 34.6113712,25.0649169 34.6113712,24.7309842 C34.6113712,24.3916069 34.8881457,24.1157494 35.2304719,24.1157494 C35.5709773,24.1157494 35.8495726,24.3916069 35.8495726,24.7309842 L35.8495726,24.7309842 Z" id="Fill-22" fill="#000000"></path>
                <path d="M38.3514679,21.6765888 C38.2877369,21.6765888 38.2312895,21.6620699 38.1748421,21.6275878 C35.3725009,20.0740747 35.2159049,17.671211 35.2159049,17.5641348 C35.2013378,17.366316 35.3579339,17.1957199 35.5564103,17.1884605 C35.7567075,17.1684971 35.9260498,17.3300189 35.9406169,17.5296526 C35.9479004,17.6149506 36.0899294,19.64214 38.5299145,20.9960194 C38.7083612,21.0885768 38.7648086,21.3081739 38.6719435,21.4842145 C38.6082126,21.6058095 38.4807507,21.6765888 38.3514679,21.6765888 L38.3514679,21.6765888 Z" id="Fill-23" fill="#000000"></path>
                <path d="M39.7244147,20.1884104 C39.6461167,20.1884104 39.5678187,20.1666321 39.5040877,20.1176311 C37.5065775,18.6276379 36.9020438,16.876306 36.8729097,16.8055268 C36.8164623,16.6149674 36.91479,16.4098891 37.1078038,16.3445544 C37.2989967,16.2810346 37.4992939,16.3881109 37.5630249,16.5714109 C37.5703084,16.5859297 38.1311408,18.1957032 39.9392791,19.5350637 C40.0958751,19.6566588 40.1304719,19.8835153 40.0102936,20.0450371 C39.9465626,20.1375945 39.8318469,20.1884104 39.7244147,20.1884104 L39.7244147,20.1884104 Z" id="Fill-24" fill="#000000"></path>
                <path d="M39.782683,23.0377275 C38.8139725,23.0377275 38.0328131,22.2863789 37.9891119,21.3226927 C37.9690821,20.8472015 38.1384244,20.3934886 38.4589,20.0395925 C38.7866592,19.6838816 39.2273133,19.4788033 39.704385,19.4642845 C40.7495726,19.4642845 41.532553,20.2156331 41.5671498,21.1793194 C41.5890004,21.6548105 41.4251208,22.1085235 41.0973616,22.4624195 C40.7714233,22.8181305 40.3362319,23.0159493 39.8536975,23.0377275 L39.782683,23.0377275 L39.782683,23.0377275 Z M39.782683,20.1884104 C39.4476403,20.2011143 39.1908956,20.3227094 38.9924192,20.5277876 C38.8012263,20.7401253 38.7010777,21.0105382 38.7156447,21.293655 C38.742958,21.8671482 39.2054627,22.3136017 39.782683,22.3136017 L39.782683,22.676572 L39.8245634,22.3136017 C40.1013378,22.3008977 40.3726496,22.1793027 40.5638424,21.966965 C40.7568562,21.7618868 40.8570048,21.4914739 40.8424378,21.208357 C40.8205871,20.6348639 40.350799,20.1884104 39.782683,20.1884104 L39.782683,20.1884104 Z" id="Fill-25" fill="#000000"></path>
                <path d="M40.4145299,21.2519135 C40.4145299,21.5912907 40.1377555,21.8671482 39.7954292,21.8671482 C39.4549238,21.8671482 39.1781494,21.5912907 39.1781494,21.2519135 C39.1781494,20.9107213 39.4549238,20.6348639 39.7954292,20.6348639 C40.1377555,20.6348639 40.4145299,20.9107213 40.4145299,21.2519135 L40.4145299,21.2519135 Z" id="Fill-26" fill="#000000"></path>
                <path d="M42.1225195,17.9325497 C42.0861018,17.9325497 42.0442215,17.9252903 42.0005203,17.9125863 C38.5444816,16.7637852 38.1748421,14.7492998 38.160275,14.6658166 C38.1256782,14.4661829 38.2604236,14.2828829 38.4589,14.2465859 C38.6519138,14.2121037 38.8431067,14.3464027 38.8795243,14.5442216 C38.8922705,14.6295196 39.2418803,16.2247742 42.2354143,17.2320169 C42.4284281,17.2955367 42.5267559,17.500615 42.4630249,17.6857299 C42.413861,17.8418071 42.271832,17.9325497 42.1225195,17.9325497 L42.1225195,17.9325497 Z" id="Fill-27" fill="#000000"></path>
                <path d="M43.1112598,15.9761396 C43.0821256,15.9761396 43.060275,15.9688801 43.0329617,15.9688801 C40.8205871,15.480685 39.2200297,13.290159 39.1562988,13.1976016 C39.0415831,13.0342649 39.0780007,12.8001491 39.2418803,12.6876283 C39.3984764,12.5660332 39.6333705,12.6095896 39.7535489,12.7729263 C39.7681159,12.7928897 41.2539576,14.8345978 43.1895578,15.261088 C43.3807507,15.3028296 43.5100334,15.4952039 43.4590487,15.6930227 C43.4244519,15.8636187 43.2751394,15.9761396 43.1112598,15.9761396 L43.1112598,15.9761396 Z" id="Fill-28" fill="#000000"></path>
                <path d="M43.4954664,18.8327161 C42.5267559,18.8327161 41.7383129,18.0813675 41.7018952,17.1176813 C41.6672984,16.1322168 42.4357116,15.3028296 43.4244519,15.261088 C44.462356,15.261088 45.2526198,16.0124366 45.2872166,16.9688634 C45.3309179,17.9543279 44.5552211,18.7909745 43.5664809,18.8327161 L43.4954664,18.8327161 L43.4954664,18.8327161 Z M43.4954664,15.983399 C42.8617986,16.0124366 42.4065775,16.5078911 42.4284281,17.0904585 C42.4557414,17.6639516 42.918246,18.1104052 43.4954664,18.1104052 L43.4954664,18.4715606 L43.5373467,18.1031458 C44.1200297,18.0813675 44.5825344,17.585913 44.5552211,17.0051605 C44.5333705,16.4298525 44.0708658,15.983399 43.4954664,15.983399 L43.4954664,15.983399 Z" id="Fill-29" fill="#000000"></path>
                <path d="M44.1273133,17.0469021 C44.1273133,17.3808348 43.8505388,17.6566922 43.5100334,17.6566922 C43.1677072,17.6566922 42.8909327,17.3808348 42.8909327,17.0469021 C42.8909327,16.7075248 43.1677072,16.4298525 43.5100334,16.4298525 C43.8505388,16.4298525 44.1273133,16.7075248 44.1273133,17.0469021 L44.1273133,17.0469021 Z" id="Fill-30" fill="#000000"></path>
                <path d="M41.5598662,36.3732579 C40.5929766,36.3732579 39.8027127,35.6146498 39.7681159,34.6564081 C39.7316983,33.6709437 40.5001115,32.834297 41.4888517,32.7925554 C42.5267559,32.7925554 43.3170197,33.5511635 43.3589,34.5075903 C43.3953177,35.4930548 42.6269045,36.3297014 41.6381643,36.3732579 L41.5598662,36.3732579 L41.5598662,36.3732579 Z M41.5598662,33.5148664 C40.9280193,33.5439041 40.4727982,34.0393586 40.5001115,34.6291854 C40.5219621,35.2026785 40.9917503,35.6418726 41.5598662,35.6418726 L41.5598662,36.0102875 L41.6035674,35.6418726 C42.1862505,35.6200944 42.6487551,35.1246399 42.6269045,34.5366279 C42.5995912,33.9685793 42.129803,33.5148664 41.5598662,33.5148664 L41.5598662,33.5148664 Z" id="Fill-31" fill="#000000"></path>
                <path d="M42.1862505,34.6564081 C42.1862505,34.9976003 41.909476,35.2734577 41.5598662,35.2734577 C41.2193608,35.2734577 40.9407655,34.9976003 40.9407655,34.6564081 C40.9407655,34.3170309 41.2193608,34.0393586 41.5598662,34.0393586 C41.909476,34.0393586 42.1862505,34.3170309 42.1862505,34.6564081 L42.1862505,34.6564081 Z" id="Fill-32" fill="#000000"></path>
                <path d="M46.5327016,36.1663648 C45.5639911,36.1663648 44.7755481,35.4077568 44.7391304,34.4513299 C44.7191007,33.9758388 44.888443,33.5148664 45.2089186,33.1609703 C45.5366778,32.8143337 45.9773318,32.6074406 46.4616871,32.5874772 C47.4995912,32.5874772 48.2825715,33.3460852 48.3244519,34.3025121 C48.3608696,35.2879765 47.5924563,36.1173638 46.6037161,36.1591054 L46.5327016,36.1663648 L46.5327016,36.1663648 Z M46.5327016,33.3097882 C46.1976589,33.324307 45.9409142,33.4440872 45.7497213,33.6564249 C45.5585284,33.863318 45.4583798,34.131916 45.4729469,34.4150329 C45.4929766,34.9903409 45.9554812,35.4367944 46.5327016,35.4367944 L46.5327016,35.7979499 L46.5745819,35.4367944 C47.157265,35.4077568 47.6197696,34.9123022 47.5924563,34.3315497 C47.5706057,33.7635011 47.1081011,33.3097882 46.5327016,33.3097882 L46.5327016,33.3097882 Z" id="Fill-33" fill="#000000"></path>
                <path d="M47.1518023,34.4513299 C47.1518023,34.7907072 46.873207,35.0611201 46.5327016,35.0611201 C46.1903753,35.0611201 45.9136009,34.7907072 45.9136009,34.4513299 C45.9136009,34.1101378 46.1903753,33.8342803 46.5327016,33.8342803 C46.873207,33.8342803 47.1518023,34.1101378 47.1518023,34.4513299 L47.1518023,34.4513299 Z" id="Fill-34" fill="#000000"></path>
                <path d="M12.6897436,37.0102708 C12.4894463,37.0102708 12.3273876,36.8469342 12.3201041,36.6491153 C12.3201041,36.4512965 12.4767001,36.2879598 12.6824601,36.2807004 C12.6824601,36.2807004 12.9246377,36.2807004 13.3652917,36.2516628 C13.5856187,36.237144 13.7422148,36.3932212 13.7494983,36.5928549 C13.7640654,36.7906737 13.6074693,36.9612698 13.4144556,36.9757886 C12.9446674,37.0102708 12.6970271,37.0102708 12.6970271,37.0102708 L12.6897436,37.0102708 Z" id="Fill-35" fill="#000000"></path>
                <path d="M14.7582683,36.861453 C14.574359,36.861453 14.4177629,36.7198945 14.3959123,36.5347797 C14.3758826,36.3369608 14.5179116,36.1591054 14.7236715,36.139142 C15.1224452,36.0955855 15.5849498,36.0465846 16.0893348,35.9830647 C16.2805277,35.9395083 16.4735414,36.0883261 16.495392,36.2879598 C16.5227053,36.4930381 16.3806763,36.6708935 16.1821999,36.6981163 C15.6687105,36.7688955 15.2080268,36.8197114 14.794686,36.861453 L14.7582683,36.861453 L14.7582683,36.861453 Z M17.4968785,36.4930381 C17.3275362,36.4930381 17.1636566,36.3732579 17.141806,36.1954024 C17.1072092,35.9975836 17.2419547,35.8052093 17.4404311,35.7761716 C17.866518,35.7053924 18.3217391,35.6273538 18.7915273,35.5366112 C18.9845411,35.5003142 19.1830175,35.6273538 19.2194352,35.8197281 C19.254032,36.0175469 19.12657,36.2099212 18.9280936,36.2444034 C18.4510219,36.3369608 17.9958008,36.4222589 17.5624303,36.4930381 L17.4968785,36.4930381 L17.4968785,36.4930381 Z M20.2154589,35.9758053 C20.0515793,35.9758053 19.8949833,35.8542103 19.8585656,35.6926885 C19.8166852,35.4930548 19.9441472,35.2952359 20.1371609,35.2589389 C20.5705314,35.1609369 21.0111854,35.0538607 21.4736901,34.939525 C21.6594203,34.8977834 21.8651802,35.0121191 21.9143441,35.2099379 C21.9580453,35.4004973 21.8433296,35.600131 21.6448532,35.649132 C21.1823486,35.7634677 20.734411,35.8687291 20.293757,35.9685459 C20.2646228,35.9685459 20.2427722,35.9758053 20.2154589,35.9758053 L20.2154589,35.9758053 Z M22.8958008,35.3097548 C22.7392048,35.3097548 22.5898922,35.2026785 22.5480119,35.0393419 C22.4970271,34.8487824 22.6117428,34.6491487 22.8029357,34.5928883 C23.2308436,34.4731081 23.6714976,34.3442537 24.1194352,34.2026952 C24.3124489,34.1464348 24.5109253,34.2535111 24.5746563,34.4440705 C24.6311037,34.6418893 24.5254924,34.841523 24.3324786,34.8977834 C23.8772575,35.0393419 23.4366035,35.1663815 22.9959495,35.2952359 C22.9595318,35.3024954 22.9322185,35.3097548 22.8958008,35.3097548 L22.8958008,35.3097548 Z M25.5415459,34.4930715 C25.3849498,34.4930715 25.2429208,34.4023289 25.193757,34.2535111 C25.130026,34.0611368 25.2283538,33.8560585 25.4213675,33.7925387 C25.8474545,33.6437209 26.2826459,33.4949031 26.7160164,33.3388258 C26.8999257,33.2680466 27.11479,33.3587892 27.1858045,33.5511635 C27.256819,33.7344635 27.1566704,33.9413566 26.9709402,34.0121358 C26.5302861,34.1754724 26.0896321,34.3315497 25.6635452,34.4803675 C25.6198439,34.4930715 25.5779636,34.4930715 25.5415459,34.4930715 L25.5415459,34.4930715 Z M28.1308436,33.5439041 C27.981531,33.5439041 27.8540691,33.4513466 27.7903382,33.3170476 C27.7193237,33.1246733 27.8103679,32.9195951 27.9960981,32.8415564 C28.4149015,32.6709604 28.8355258,32.5021792 29.2616128,32.3170643 C29.447343,32.2390257 29.6603865,32.3170643 29.7386845,32.5021792 C29.8242661,32.6854792 29.7386845,32.8978168 29.5529543,32.9831149 C29.1195838,33.1682297 28.6934968,33.3460852 28.265589,33.5148664 C28.2237087,33.5366446 28.1745448,33.5439041 28.1308436,33.5439041 L28.1308436,33.5439041 Z M30.6636938,32.4386594 C30.5289483,32.4386594 30.392382,32.3606207 30.3359346,32.2317663 C30.250353,32.0484662 30.3213675,31.8361286 30.5070977,31.7508306 C30.913155,31.5511969 31.3246748,31.353378 31.7380156,31.1482998 C31.9146414,31.0557424 32.1349684,31.1192622 32.2278335,31.304377 C32.3206986,31.4804177 32.2496841,31.7000147 32.0712375,31.7853127 C31.652434,31.9976504 31.2390933,32.2045435 30.8202899,32.4023623 C30.7693051,32.4314 30.7128577,32.4386594 30.6636938,32.4386594 L30.6636938,32.4386594 Z M33.1237087,31.182782 C32.9962467,31.182782 32.8687848,31.1192622 32.8050539,30.999482 C32.7049052,30.8216265 32.7686362,30.6020294 32.9470829,30.509472 C33.3440357,30.2898749 33.7355258,30.0630185 34.1342995,29.8289026 C34.3054627,29.7218264 34.5257897,29.7799016 34.6332219,29.9559422 C34.7388331,30.1265383 34.6823857,30.3461353 34.5039391,30.4532116 C34.1051654,30.6873275 33.700929,30.9141839 33.2948718,31.1410404 C33.2384244,31.1682632 33.181977,31.182782 33.1237087,31.182782 L33.1237087,31.182782 Z M35.4926793,29.7799016 C35.3797845,29.7799016 35.2577852,29.7218264 35.1867707,29.6093056 C35.0811594,29.4459689 35.1303233,29.2191124 35.3014864,29.113851 C35.6856931,28.8724758 36.0626161,28.6165817 36.4395392,28.355243 C36.6034188,28.2409074 36.8310294,28.2844638 36.9512077,28.4459856 C37.0641026,28.6165817 37.0222222,28.8434381 36.8583426,28.9577738 C36.4668525,29.2191124 36.0826459,29.4750065 35.6984392,29.7218264 C35.6274247,29.7581234 35.5636938,29.7799016 35.4926793,29.7799016 L35.4926793,29.7799016 Z M37.7687848,28.2191292 C37.6631735,28.2191292 37.5484578,28.1701282 37.4774433,28.0703113 C37.357265,27.9069747 37.3918618,27.6801182 37.5557414,27.560338 C37.9180974,27.2917399 38.2804534,27.021327 38.6446302,26.7382102 C38.7939428,26.6111705 39.0288369,26.6383933 39.1562988,26.7944706 C39.2764771,26.9505478 39.2491639,27.1774043 39.0925678,27.3044439 C38.7302118,27.596635 38.3587514,27.8797519 37.9891119,28.1483499 C37.9253809,28.1991658 37.8470829,28.2191292 37.7687848,28.2191292 L37.7687848,28.2191292 Z M39.9319955,26.5040943 C39.8318469,26.5040943 39.7244147,26.4623527 39.6606838,26.3843141 C39.5259383,26.2282368 39.5477889,26.0013804 39.6971014,25.8652665 C40.0376068,25.5748902 40.3872166,25.2772545 40.7204385,24.9651 C40.869751,24.830801 41.0973616,24.8380604 41.2339279,24.9868783 C41.3686734,25.1356961 41.3613898,25.3625526 41.2120773,25.4968516 C40.869751,25.8162655 40.5146786,26.1211606 40.1668896,26.4187963 C40.1013378,26.4823161 40.0175771,26.5040943 39.9319955,26.5040943 L39.9319955,26.5040943 Z M41.9659234,24.647501 C41.8730583,24.647501 41.7801932,24.611204 41.7018952,24.5404247 C41.5598662,24.3916069 41.5598662,24.1647504 41.7091787,24.023192 C42.0296544,23.7110375 42.3501301,23.3843642 42.6633222,23.0522463 C42.7980676,22.9034285 43.0329617,22.8961691 43.1749907,23.0377275 C43.3243032,23.1720266 43.3315868,23.4061424 43.1968413,23.5477009 C42.8690821,23.888893 42.5486065,24.2210108 42.2226682,24.5476842 C42.1498328,24.611204 42.0587886,24.647501 41.9659234,24.647501 L41.9659234,24.647501 Z M43.8578224,22.640275 C43.7722408,22.640275 43.6866592,22.6130522 43.6156447,22.554977 C43.4663322,22.420678 43.4517651,22.1938215 43.5810479,22.0377442 C43.879673,21.7056264 44.1710145,21.3571749 44.462356,20.9960194 C44.5898179,20.8399421 44.8174285,20.8181639 44.9740245,20.9470184 C45.1306206,21.074058 45.1597547,21.3009145 45.0304719,21.4569917 C44.7318469,21.8181472 44.4332219,22.1720433 44.1345968,22.5204948 C44.0635823,22.6057928 43.957971,22.640275 43.8578224,22.640275 L43.8578224,22.640275 Z M45.6004088,20.5060094 C45.5221107,20.5060094 45.4438127,20.4787866 45.3800818,20.4352302 C45.2234857,20.31545 45.187068,20.0885935 45.3090673,19.9252569 C45.5858417,19.5641014 45.8498699,19.1956865 46.1120773,18.8200122 C46.226793,18.6566755 46.4544036,18.6203785 46.6182832,18.7347141 C46.7803419,18.8472349 46.8313266,19.0740914 46.7093274,19.2374281 C46.4398365,19.6203618 46.1685247,19.9960361 45.8917503,20.3571916 C45.8134522,20.4570084 45.707841,20.5060094 45.6004088,20.5060094 L45.6004088,20.5060094 Z M47.1791156,18.2519636 C47.1081011,18.2519636 47.0443701,18.2301854 46.9806392,18.1957032 C46.809476,18.0813675 46.7675957,17.8617705 46.873207,17.6929893 C47.1153846,17.3100556 47.3575622,16.9271218 47.5924563,16.5296693 C47.6907841,16.3590733 47.9183946,16.3028129 48.0968413,16.4098891 C48.2680045,16.5078911 48.3244519,16.7347476 48.2170197,16.9053436 C47.9839465,17.3027961 47.7344853,17.6984338 47.4850242,18.0813675 C47.4140097,18.1957032 47.2938313,18.2519636 47.1791156,18.2519636 L47.1791156,18.2519636 Z M48.5884801,15.8835821 C48.5302118,15.8835821 48.4664809,15.8708782 48.4100334,15.8418405 C48.2388703,15.7492831 48.1678558,15.5224266 48.2680045,15.3536454 C48.4810479,14.9561929 48.701375,14.551481 48.8998514,14.1413245 C48.9927165,13.963469 49.2130435,13.8926898 49.3914902,13.9852472 C49.5699368,14.0687304 49.6409513,14.2901423 49.5553698,14.4734423 C49.3423263,14.8854137 49.1274619,15.2955702 48.8998514,15.7002821 C48.8434039,15.8200623 48.715942,15.8835821 48.5884801,15.8835821 L48.5884801,15.8835821 Z M49.8321442,13.4317175 C49.7829803,13.4317175 49.7319955,13.4244581 49.6828317,13.3954204 C49.4989223,13.3173818 49.4133408,13.0977847 49.5062059,12.9144847 C49.6901152,12.5097728 49.8758454,12.0996163 50.0597547,11.6731262 C50.1380528,11.4898261 50.3510962,11.3972687 50.5368265,11.4825667 C50.7207358,11.5606054 50.8063174,11.772943 50.7280193,11.956243 C50.54411,12.3899926 50.3583798,12.8074085 50.1671869,13.2266392 C50.103456,13.3536788 49.9668896,13.4317175 49.8321442,13.4317175 L49.8321442,13.4317175 Z" id="Fill-36" fill="#000000"></path>
                <path d="M50.9137495,10.880036 C50.8718692,10.880036 50.828168,10.8727766 50.7862876,10.8509983 C50.6005574,10.7802191 50.5076923,10.5751409 50.5787068,10.3827666 C50.6642884,10.170429 50.7425864,9.95083189 50.828168,9.73123484 C50.8918989,9.54611996 51.1049424,9.44811797 51.2906726,9.51163778 C51.4818655,9.582417 51.5747306,9.79475465 51.5037161,9.97986952 C51.4254181,10.206726 51.3398365,10.426323 51.2542549,10.6459201 C51.1978075,10.7947379 51.0630621,10.880036 50.9137495,10.880036 L50.9137495,10.880036 Z" id="Fill-37" fill="#000000"></path>
                <path d="M5.76856187,42.2134506 C5.59739874,42.2134506 5.44808621,42.0936704 5.41348941,41.9230744 L4.21716834,36.3369608 C4.175288,36.139142 4.29546637,35.9467677 4.49576366,35.9050261 C4.69424006,35.8687291 4.88725381,35.9903241 4.92913415,36.1808836 L6.12363434,41.7669971 C6.16733556,41.9666308 6.03805277,42.1644496 5.8468599,42.1989318 C5.81772575,42.2061912 5.79041249,42.2134506 5.76856187,42.2134506 L5.76856187,42.2134506 Z" id="Fill-38" fill="#000000"></path>
                <path d="M2.48186548,40.9158317 C2.36897064,40.9158317 2.25425492,40.8595713 2.18324043,40.7615693 C2.0703456,40.5982326 2.11222594,40.3641168 2.27610554,40.2497811 L6.98491267,37.0030114 C7.14879227,36.8904906 7.38368636,36.9249728 7.4965812,37.0883094 C7.61129692,37.2589055 7.56759569,37.485762 7.40371609,37.5982828 L2.69490896,40.8523119 C2.62389446,40.8958683 2.55287997,40.9158317 2.48186548,40.9158317 L2.48186548,40.9158317 Z" id="Fill-39" fill="#000000"></path>
                <path d="M9.54507618,43.1009131 C9.40304719,43.1009131 9.27558528,43.0228745 9.21185433,42.8867606 L6.93574879,37.6490986 C6.85016722,37.4639837 6.94121145,37.2516461 7.12694166,37.1663481 C7.31267187,37.0883094 7.52571535,37.1736075 7.60401338,37.3587223 L9.88011891,42.5963844 C9.96570048,42.7814992 9.88011891,42.9938369 9.6943887,43.0718755 C9.64522482,43.0936537 9.59606094,43.1009131 9.54507618,43.1009131 L9.54507618,43.1009131 Z" id="Fill-40" fill="#000000"></path>
                <path d="M6.07447046,42.4766041 C5.98160535,42.4766041 5.88874025,42.4475665 5.81772575,42.3767873 C5.67569677,42.2352289 5.66841323,42.0083724 5.81044221,41.866814 L9.78725381,37.7471006 C9.92928279,37.6055422 10.1568933,37.5982828 10.2989223,37.7398412 C10.4482349,37.8759551 10.4482349,38.1100709 10.3062059,38.2516294 L6.33667781,42.3622685 C6.26020067,42.4403071 6.16733556,42.4766041 6.07447046,42.4766041 L6.07447046,42.4766041 Z" id="Fill-41" fill="#000000"></path>
                <path d="M13.0029357,43.9012627 C12.8590858,43.9012627 12.7243404,43.8159647 12.667893,43.6816657 L10.3845039,38.4421888 C10.2989223,38.2588888 10.3845039,38.0447363 10.5702341,37.9666977 C10.7541434,37.888659 10.9671869,37.9666977 11.0527685,38.1590719 L13.3361576,43.3912894 C13.4144556,43.5745894 13.328874,43.7869271 13.1449647,43.8722251 C13.0939799,43.8867439 13.0448161,43.9012627 13.0029357,43.9012627 L13.0029357,43.9012627 Z" id="Fill-42" fill="#000000"></path>
                <path d="M9.51776291,43.2769537 C9.43218135,43.2769537 9.33931624,43.2424716 9.26830175,43.1789517 C9.12627276,43.0355785 9.11898922,42.8032774 9.26101821,42.6599042 L13.2378298,38.5420056 C13.3798588,38.4004472 13.6074693,38.4004472 13.7494983,38.5347462 C13.8988109,38.6763047 13.8988109,38.9031611 13.7567819,39.0447196 L9.77997027,43.1644329 C9.70895578,43.2424716 9.61609067,43.2769537 9.51776291,43.2769537 L9.51776291,43.2769537 Z" id="Fill-43" fill="#000000"></path>
                <path d="M16.8996284,44.3767539 C16.77945,44.3767539 16.6574508,44.3132341 16.5864363,44.1988984 L13.6347826,39.3078731 C13.5364548,39.137277 13.5929023,38.9104205 13.7640654,38.8033443 C13.9334077,38.7126017 14.1610182,38.7616027 14.2611669,38.9321988 L17.2128205,43.8232241 C17.3129692,44.0010796 17.2565217,44.2206766 17.0853586,44.325938 C17.0289112,44.3622351 16.9633593,44.3767539 16.8996284,44.3767539 L16.8996284,44.3767539 Z" id="Fill-44" fill="#000000"></path>
                <path d="M13.3725753,44.2134172 C13.2942772,44.2134172 13.2159792,44.1843796 13.1522482,44.142638 C12.9956522,44.0210429 12.9592345,43.7941865 13.0739502,43.6326647 L16.480825,39.0302008 C16.6010033,38.8741235 16.8286139,38.8396413 16.98521,38.9521621 C17.1490896,39.0737572 17.1855072,39.3006137 17.063508,39.4639503 L13.6639168,44.0645994 C13.5929023,44.1644162 13.4781865,44.2134172 13.3725753,44.2134172 L13.3725753,44.2134172 Z" id="Fill-45" fill="#000000"></path>
                <path d="M20.6834262,44.6943529 C20.5559643,44.6943529 20.435786,44.6308331 20.372055,44.5183123 L17.4185805,39.6200276 C17.3202527,39.4421721 17.3767001,39.222575 17.5478632,39.1154988 C17.7172055,39.0174968 17.9448161,39.0737572 18.0522482,39.2443533 L20.9966184,44.142638 C21.096767,44.3132341 21.0403196,44.5400905 20.8691564,44.6380925 C20.812709,44.6743896 20.7489781,44.6943529 20.6834262,44.6943529 L20.6834262,44.6943529 Z" id="Fill-46" fill="#000000"></path>
                <path d="M17.1490896,44.5255717 C17.0780751,44.5255717 16.999777,44.5037935 16.9360461,44.4547925 C16.77945,44.3331974 16.7357488,44.106341 16.857748,43.9430043 L20.2573393,39.3496147 C20.3775177,39.186278 20.6051282,39.1517958 20.7690078,39.271576 C20.9328874,39.3859117 20.9693051,39.6127681 20.8473058,39.7761048 L17.4477146,44.3767539 C17.3767001,44.4747559 17.2619844,44.5255717 17.1490896,44.5255717 L17.1490896,44.5255717 Z" id="Fill-47" fill="#000000"></path>
                <path d="M51.2196581,30.7072908 C51.0976589,30.7072908 50.984764,30.6728087 50.8718692,30.6165483 C50.5659606,30.4532116 50.4221107,30.0920561 50.5295429,29.7653828 L52.5998885,23.1157662 L49.0145671,23.264584 C48.701375,23.2791028 48.4391676,23.1157662 48.3171683,22.8453533 C48.19699,22.5767552 48.2461538,22.2573413 48.4519138,22.0450037 L57.0155333,12.9852639 C57.2504274,12.7366293 57.6273504,12.6876283 57.9259755,12.8636689 C58.2191379,13.0415243 58.3465998,13.3954204 58.2318841,13.7220937 L56.2981048,19.3154667 L59.5702341,19.1739083 C59.8761427,19.1593894 60.1256039,19.3227261 60.2530658,19.5786202 C60.3805277,19.8326994 60.3459309,20.1448539 60.1674842,20.364451 L51.7823114,30.4386928 C51.6384615,30.6165483 51.4327016,30.7072908 51.2196581,30.7072908 L51.2196581,30.7072908 Z M53.6031958,21.6275878 C53.8235229,21.6275878 54.0438499,21.7328492 54.1785953,21.9107046 C54.3206243,22.0940046 54.3625046,22.3426393 54.2914902,22.5694958 L53.0041249,26.6892092 L57.9915273,20.6911243 L55.2802304,20.8036451 C55.0325901,20.8254233 54.8122631,20.7056431 54.6684132,20.5132688 C54.5263842,20.3227094 54.4845039,20.0740747 54.5628019,19.8472182 L55.7500186,16.4443713 L50.7425864,21.7401086 L53.5740617,21.6275878 L53.6031958,21.6275878 L53.6031958,21.6275878 Z" id="Fill-48" fill="#000000"></path>
                <path d="M46.1266444,13.7710947 C45.1670383,13.7710947 44.3767744,13.0197461 44.3421776,12.0560599 C44.320327,11.5805687 44.4914902,11.1268558 44.8101449,10.7729597 C45.1379041,10.4190636 45.5785582,10.2194299 46.0556299,10.1994666 C47.093534,10.1994666 47.8765143,10.9508152 47.9183946,11.9145014 C47.9620959,12.8927065 47.1936826,13.7293531 46.1976589,13.7710947 L46.1266444,13.7710947 L46.1266444,13.7710947 Z M46.1339279,10.929037 C45.7988852,10.9435558 45.5366778,11.063336 45.3436641,11.2702291 C45.1524712,11.4825667 45.0523226,11.7511648 45.0668896,12.0342817 C45.0887402,12.6023302 45.5585284,13.0487838 46.1339279,13.0487838 L46.1339279,13.4099392 L46.1758082,13.0487838 C46.7603122,13.0197461 47.2228168,12.531551 47.1936826,11.9435391 C47.171832,11.3754905 46.7020438,10.929037 46.1339279,10.929037 L46.1339279,10.929037 Z" id="Fill-49" fill="#000000"></path>
                <path d="M46.7530286,12.0633193 C46.7530286,12.4045114 46.4744333,12.6731095 46.1339279,12.6731095 C45.7916016,12.6731095 45.5148272,12.4045114 45.5148272,12.0633193 C45.5148272,11.723942 45.7916016,11.4462697 46.1339279,11.4462697 C46.4744333,11.4462697 46.7530286,11.723942 46.7530286,12.0633193 L46.7530286,12.0633193 Z" id="Fill-50" fill="#000000"></path>
                <path d="M43.3315868,13.2974184 C40.9061687,13.2974184 40.1086213,12.3391767 40.0740245,12.2901757 C39.9465626,12.1340985 39.9738759,11.907242 40.1304719,11.7802024 C40.287068,11.6586073 40.5146786,11.6803856 40.6421405,11.8364628 C40.6639911,11.858241 41.6235972,12.9144847 44.8174285,12.4607718 C45.0104422,12.4317342 45.2016351,12.5660332 45.2307692,12.7656669 C45.2580825,12.9634857 45.123337,13.1486006 44.9175771,13.1758234 C44.3276106,13.2611214 43.801375,13.2974184 43.3315868,13.2974184 L43.3315868,13.2974184 Z" id="Fill-51" fill="#000000"></path>
                <path d="M44.384058,11.3972687 C42.5340394,11.3972687 40.9134522,10.2702458 40.8351542,10.2194299 C40.6712746,10.0996497 40.6348569,9.87279327 40.7495726,9.70945662 C40.8624675,9.54611996 41.090078,9.50437838 41.2539576,9.62415859 C41.2758082,9.63141799 43.1604236,10.9362964 44.9885916,10.6168825 C45.1797845,10.5824003 45.3727982,10.7166993 45.4092159,10.9145181 C45.4438127,11.1141518 45.3163508,11.2974519 45.1160535,11.3337489 C44.8684132,11.3754905 44.6262356,11.3972687 44.384058,11.3972687 L44.384058,11.3972687 Z" id="Fill-52" fill="#000000"></path>
            </g>
        </g>
    </g>
</svg>