<?xml version="1.0" encoding="UTF-8" standalone="no"?>
<svg width="69px" height="54px" viewBox="0 0 69 54" version="1.1" xmlns="http://www.w3.org/2000/svg" xmlns:xlink="http://www.w3.org/1999/xlink">
    <!-- Generator: Sketch 3.6.1 (26313) - http://www.bohemiancoding.com/sketch -->
    <title>camping17</title>
    <desc>Created with Sketch.</desc>
    <defs>
        <path id="path-1" d="M0.0116536603,0.000392524448 L68.173913,0.000392524448 L68.173913,53.7762419 L0.0116536603,53.7762419 L0.0116536603,0.000392524448 Z"></path>
    </defs>
    <g id="Page-1" stroke="none" stroke-width="1" fill="none" fill-rule="evenodd">
        <g id="mens-categories" transform="translate(-153.000000, -254.000000)">
            <g id="camping17" transform="translate(153.000000, 254.000000)">
                <mask id="mask-2" fill="white">
                    <use xlink:href="#path-1"></use>
                </mask>
                <g id="Clip-2"></g>
                <path d="M67.180827,51.8919282 L64.5117503,51.8919282 L64.5117503,49.6816231 C64.5117503,49.1611357 64.0935781,48.7393681 63.5792632,48.7393681 C63.0639772,48.7393681 62.6467762,49.1611357 62.6467762,49.6816231 L62.6467762,51.8919282 L61.7006932,51.8919282 L35.133261,5.3923046 L37.4055305,1.41348054 C37.662688,0.962666208 37.5102192,0.386832843 37.0640783,0.126981659 C36.6187142,-0.132869526 36.0482676,0.0211963202 35.7903332,0.472010648 L34.0558801,3.50857978 L32.3206501,0.472010648 C32.0634926,0.0211963202 31.493046,-0.132869526 31.0476819,0.126981659 C30.6015409,0.386832843 30.4490722,0.963451257 30.7062297,1.41348054 L32.980053,5.39308965 L6.41184392,51.8919282 L5.46653784,51.8919282 L5.46653784,49.6816231 C5.46653784,49.1611357 5.04914257,48.7393681 4.53405079,48.7393681 C4.01876477,48.7393681 3.60156373,49.1611357 3.60156373,49.6816231 L3.60156373,51.8919282 L0.932487056,51.8919282 C0.417201041,51.8919282 0,52.3134995 0,52.8341832 C0,53.3538855 0.417201041,53.7756531 0.932487056,53.7756531 L61.1626825,53.7756531 L61.1657902,53.7756531 L67.180827,53.7756531 C67.6959187,53.7756531 68.113314,53.3538855 68.113314,52.8341832 C68.113314,52.3134995 67.6959187,51.8919282 67.180827,51.8919282 L67.180827,51.8919282 Z M26.2760907,51.4611327 L17.6754951,47.8294965 L31.6666855,36.6747367 L26.2760907,51.4611327 Z M34.9784615,51.8919282 C34.9844826,51.8481618 34.9891441,51.8038065 34.9891441,51.7584699 L34.9891441,8.90893113 L59.5482621,51.8919282 L34.9784615,51.8919282 Z M33.1241699,8.90893113 L33.1241699,33.1159138 C33.1189258,33.1196428 33.1127105,33.122783 33.1074664,33.127297 L15.2771718,47.3417848 C15.0176836,47.5488415 14.88658,47.878562 14.9312523,48.2088714 C14.9759247,48.540162 15.1907405,48.8221908 15.494901,48.9509388 L22.4599054,51.8919282 L8.5650519,51.8919282 L33.1241699,8.90893113 Z" id="Fill-1" fill="#000000" mask="url(#mask-2)"></path>
            </g>
        </g>
    </g>
</svg>