<?xml version="1.0" encoding="UTF-8" standalone="no"?>
<svg width="80px" height="31px" viewBox="0 0 80 31" version="1.1" xmlns="http://www.w3.org/2000/svg" xmlns:xlink="http://www.w3.org/1999/xlink">
    <!-- Generator: Sketch 3.6.1 (26313) - http://www.bohemiancoding.com/sketch -->
    <title>optical11</title>
    <desc>Created with Sketch.</desc>
    <defs>
        <path id="path-1" d="M0.0145493107,0.0702832322 L79.5362319,0.0702832322 L79.5362319,30.3647798 L0.0145493107,30.3647798 L0.0145493107,0.0702832322 Z"></path>
    </defs>
    <g id="Page-1" stroke="none" stroke-width="1" fill="none" fill-rule="evenodd">
        <g id="mens-categories" transform="translate(-272.000000, -278.000000)">
            <g id="optical11" transform="translate(272.000000, 278.000000)">
                <g id="Group-3">
                    <mask id="mask-2" fill="white">
                        <use xlink:href="#path-1"></use>
                    </mask>
                    <g id="Clip-2"></g>
                    <path d="M77.9733934,7.55690159 L75.1779859,7.55690159 C74.6854917,6.44739595 74.0698134,5.45155526 73.3234337,4.57955846 C70.7649374,1.58791633 66.7791538,0.0702832322 61.4783549,0.0702832322 L17.9506971,0.0702832322 C12.6501407,0.0702832322 8.66411453,1.58791633 6.10489077,4.57955846 C5.35948109,5.45155526 4.7428328,6.44739595 4.25009615,7.55690159 L1.45493107,7.55690159 C0.65180912,7.55690159 0,8.20738502 0,9.01103743 C0,9.81396277 0.65180912,10.4651733 1.45493107,10.4651733 L3.30681584,10.4651733 C2.99036833,11.8994359 2.83032591,13.4737803 2.83032591,15.1816629 C2.83032591,23.5145883 9.61345705,30.294739 17.9506971,30.294739 C23.228702,30.294739 28.3342976,27.8883865 32.325901,23.5182236 C35.8182206,19.6955429 37.9872803,14.7376667 37.9872803,10.5798076 C37.9872803,10.219909 37.9872803,9.87067407 37.9853404,9.52992157 C38.5462163,9.39638343 39.1240665,9.32925082 39.714041,9.32925082 C40.304258,9.32925082 40.8821082,9.39735285 41.4427416,9.52992157 C41.4408017,9.87067407 41.4408017,10.219909 41.4408017,10.5798076 C41.4408017,14.7376667 43.6110739,19.6955429 47.1024235,23.5182236 C51.0940269,27.8883865 56.1996225,30.294739 61.4783549,30.294739 C69.8158374,30.294739 76.5989685,23.5145883 76.5989685,15.1816629 C76.5989685,13.4728109 76.4389261,11.8994359 76.1215087,10.4651733 L77.9733934,10.4651733 C78.7765154,10.4651733 79.4283245,9.81396277 79.4283245,9.01103743 C79.4283245,8.20738502 78.7765154,7.55690159 77.9733934,7.55690159 L77.9733934,7.55690159 Z M30.1764829,21.5578061 C26.7428455,25.3160202 22.4018162,27.3864673 17.9506971,27.3864673 C11.2180035,27.3864673 5.74018805,21.9116459 5.74018805,15.1816629 C5.74018805,6.97088485 9.73470131,2.97855491 17.9506971,2.97855491 C26.7210216,2.97855491 31.5509077,2.97855491 33.572292,3.96421665 C34.9391997,4.62972615 35.0774182,5.81218094 35.0774182,10.5798076 C35.0774182,14.0418627 33.1991022,18.2479506 30.1764829,21.5578061 L30.1764829,21.5578061 Z M39.714041,6.42097915 C39.0937554,6.42097915 38.4817144,6.4757516 37.8813128,6.58263058 C37.7506115,5.13334186 37.4579279,3.9319833 36.8024814,2.97855491 L42.6258431,2.97855491 C41.9703966,3.9319833 41.677713,5.13334186 41.5470117,6.58263058 C40.9473376,6.4757516 40.3345691,6.42097915 39.714041,6.42097915 L39.714041,6.42097915 Z M61.4783549,27.3864673 C57.0274783,27.3864673 52.685479,25.3160202 49.2525691,21.5578061 C46.2292223,18.2479506 44.3506638,14.0408933 44.3506638,10.5788382 C44.3506638,5.81121152 44.4900947,4.62875673 45.85676,3.96324723 C47.8771743,2.97855491 52.7080304,2.97855491 61.4783549,2.97855491 C69.6945931,2.97855491 73.6891064,6.96991543 73.6891064,15.1816629 C73.6891064,21.9116459 68.2112909,27.3864673 61.4783549,27.3864673 L61.4783549,27.3864673 Z" id="Fill-1" fill="#000000" mask="url(#mask-2)"></path>
                </g>
                <path d="M22.6215108,7.19991124 C22.0531177,6.6320712 21.1316614,6.6320712 20.5632683,7.19894182 L11.261409,16.4937781 C10.6932584,17.0608911 10.6932584,17.9820861 11.2606815,18.5499262 C11.5446356,18.8339674 11.9170979,18.975988 12.2902877,18.975988 C12.6625076,18.975988 13.0347275,18.8339674 13.318924,18.5499262 L22.6215108,9.25630167 C23.1889339,8.6891887 23.1889339,7.76799364 22.6215108,7.19991124 L22.6215108,7.19991124 Z" id="Fill-4" fill="#000000"></path>
                <path d="M25.1855843,11.829395 L18.2074924,18.801007 C17.6390993,19.368847 17.6390993,20.2900421 18.2074924,20.857155 C18.4916889,21.1411962 18.8639088,21.2832168 19.2361287,21.2832168 C19.6083485,21.2832168 19.9805684,21.1411962 20.2647649,20.8581245 L27.2430993,13.8855431 C27.8112499,13.3184301 27.8112499,12.3974774 27.2430993,11.829395 C26.6756762,11.2613126 25.7539774,11.2613126 25.1855843,11.829395 L25.1855843,11.829395 Z" id="Fill-5" fill="#000000"></path>
                <path d="M63.5470244,7.19991124 C62.9788738,6.6320712 62.057175,6.6320712 61.4887819,7.19894182 L52.1861951,16.4937781 C51.6178021,17.0618605 51.6168321,17.9820861 52.1852252,18.5499262 C52.4694217,18.8339674 52.8416416,18.975988 53.2148314,18.975988 C53.5870513,18.975988 53.9592711,18.8349368 54.2424977,18.5508956 L63.5462969,9.25630167 C64.1144475,8.6891887 64.1144475,7.76799364 63.5470244,7.19991124 L63.5470244,7.19991124 Z" id="Fill-6" fill="#000000"></path>
                <path d="M66.1113404,11.829395 L59.133006,18.801007 C58.5658254,19.368847 58.5648554,20.2900421 59.133006,20.857155 C59.4172025,21.1411962 59.7894224,21.2832168 60.1618848,21.2832168 C60.5341046,21.2832168 60.9063245,21.1411962 61.190521,20.8581245 L68.1686129,13.8855431 C68.737006,13.3184301 68.737006,12.3974774 68.1686129,11.829395 C67.6011898,11.2613126 66.679491,11.2613126 66.1113404,11.829395 L66.1113404,11.829395 Z" id="Fill-7" fill="#000000"></path>
            </g>
        </g>
    </g>
</svg>