<?xml version="1.0" encoding="UTF-8" standalone="no"?>
<svg width="40px" height="45px" viewBox="0 0 45 52" version="1.1" xmlns="http://www.w3.org/2000/svg" xmlns:xlink="http://www.w3.org/1999/xlink">
    <!-- Generator: Sketch 3.6.1 (26313) - http://www.bohemiancoding.com/sketch -->
    <title>shopper29</title>
    <desc>Created with Sketch.</desc>
    <defs></defs>
    <g id="Page-1" stroke="none" stroke-width="1" fill="none" fill-rule="evenodd">
        <g id="WOMENS-SIX-CATEGORY" transform="translate(-40.000000, -122.000000)" fill="#000000">
            <path d="M81.6805713,136.258 C81.6024058,135.43 80.9129467,134.796 80.0831906,134.796 L72.0662234,134.796 L72.0662234,131.602 C72.0662234,126.304 67.7530951,122 62.4438586,122 C57.1446434,122 52.8214939,126.304 52.8214939,131.602 L52.8214939,134.796 L44.8045267,134.796 C43.9747706,134.796 43.2873157,135.43 43.2091503,136.258 L40.0063719,171.454 C39.9662871,171.906 40.1166052,172.344 40.42125,172.68 C40.7178777,173.008 41.1487897,173.204 41.6037526,173.204 L83.2939859,173.204 C83.7389276,173.204 84.1698396,173.008 84.4744843,172.68 C84.7731163,172.344 84.9294472,171.906 84.8893624,171.454 L81.6805713,136.258 Z M56.0322892,131.602 C56.0322892,128.07 58.9143889,125.204 62.4438586,125.204 C65.9833496,125.204 68.8554281,128.07 68.8554281,131.602 L68.8554281,134.796 L56.0322892,134.796 L56.0322892,131.602 Z M43.3574642,170 L46.2696275,138 L52.8214939,138 L52.8214939,141.64 C51.8674748,142.196 51.2261174,143.218 51.2261174,144.398 C51.2261174,146.164 52.657146,147.602 54.4268915,147.602 C56.196637,147.602 57.6376869,146.164 57.6376869,144.398 C57.6376869,143.218 56.9883125,142.196 56.0322892,141.64 L56.0322892,138 L68.8554281,138 L68.8554281,141.64 C67.901409,142.196 67.2600517,143.218 67.2600517,144.398 C67.2600517,146.164 68.6910803,147.602 70.4608258,147.602 C72.2305713,147.602 73.6716211,146.164 73.6716211,144.398 C73.6716211,143.218 73.0222468,142.196 72.0662234,141.64 L72.0662234,138 L78.6200941,138 L81.5322574,170 L43.3574642,170 Z" id="shopper29"></path>
        </g>
    </g>
</svg>