<?xml version="1.0" encoding="UTF-8" standalone="no"?>
<svg width="34px" height="55px" viewBox="0 0 34 55" version="1.1" xmlns="http://www.w3.org/2000/svg" xmlns:xlink="http://www.w3.org/1999/xlink">
    <!-- Generator: Sketch 3.6.1 (26313) - http://www.bohemiancoding.com/sketch -->
    <title>dress15</title>
    <desc>Created with Sketch.</desc>
    <defs>
        <path id="path-1" d="M0.06375,0.105660377 L34,0.105660377 L34,55.0490566 L0.06375,55.0490566 L0.06375,0.105660377 Z"></path>
    </defs>
    <g id="Page-1" stroke="none" stroke-width="1" fill="none" fill-rule="evenodd">
        <g id="WOMENS-SIX-CATEGORY" transform="translate(-170.000000, -119.000000)">
            <g id="dress15" transform="translate(170.000000, 119.000000)">
                <mask id="mask-2" fill="white">
                    <use xlink:href="#path-1"></use>
                </mask>
                <g id="Clip-2"></g>
                <path d="M29.9529375,36.3355472 C26.19275,30.0086038 24.894375,26.5450566 24.8529375,24.0609811 C24.8529375,24.0356226 24.860375,24.0113208 24.860375,23.9827925 C24.860375,23.9532075 24.8529375,23.9246792 24.8529375,23.8919245 C24.864625,21.997434 25.6200625,20.664 26.5625,19.0093585 C31.1195625,11.0182642 28.4845625,6.23079245 28.3676875,6.03215094 C28.239125,5.80181132 28.0404375,5.62430189 27.8035,5.51230189 C27.2138125,5.2354717 26.6081875,5.03788679 25.9898125,4.91003774 L25.9898125,1.3725283 C25.9898125,0.675169811 25.417125,0.105660377 24.711625,0.105660377 C24.010375,0.105660377 23.4376875,0.675169811 23.4376875,1.3725283 L23.4376875,4.79381132 C20.5615,5.11184906 18.2038125,6.82460377 16.9543125,7.93932075 C15.7675,6.87426415 13.568125,5.2650566 10.877875,4.83924528 L10.877875,1.3725283 C10.877875,0.675169811 10.3094375,0.105660377 9.6039375,0.105660377 C8.8984375,0.105660377 8.33,0.675169811 8.33,1.3725283 L8.33,4.83924528 C7.5703125,4.95969811 6.823375,5.17418868 6.105125,5.51230189 C5.8681875,5.62430189 5.6695,5.80603774 5.5409375,6.03215094 C5.4240625,6.23079245 2.7890625,11.0182642 7.346125,19.0093585 C8.2970625,20.6766792 9.0556875,22.013283 9.0599375,23.9373585 C9.0556875,23.9532075 9.0525,23.9701132 9.0525,23.9870189 C9.0525,23.9944151 9.0556875,24.0113208 9.0556875,24.0197736 C9.03125,26.5080755 7.7360625,29.9758491 3.9556875,36.3355472 C0.9339375,41.4209811 -0.3028125,46.9512453 0.0626875,53.7452075 C0.095625,54.4172075 0.6555625,54.941283 1.336625,54.941283 L32.572,54.941283 C33.2488125,54.941283 33.80875,54.4172075 33.8459375,53.7452075 C34.2114375,46.9512453 32.9746875,41.4167547 29.9529375,36.3355472 L29.9529375,36.3355472 Z M7.6075,7.62973585 C8.247125,7.38671698 8.9026875,7.26626415 9.571,7.26626415 C13.0570625,7.26626415 15.9661875,10.5184906 15.9916875,10.5523019 C16.47725,11.1049057 17.435625,11.1049057 17.9211875,10.5523019 C17.9466875,10.5184906 20.827125,7.26626415 24.341875,7.26626415 C25.0101875,7.26626415 25.6615,7.38671698 26.296875,7.62550943 C26.6740625,8.69479245 27.4879375,12.2481509 24.346125,17.7583396 C23.375,19.4626415 22.6153125,20.949283 22.3751875,22.7148679 L11.5334375,22.7148679 C11.2933125,20.949283 10.537875,19.4626415 9.56675,17.7583396 C6.392,12.1900377 7.2133125,8.69479245 7.6075,7.62973585 L7.6075,7.62973585 Z M31.348,52.4075472 L2.564875,52.4075472 C2.390625,44.8961509 4.507125,40.3971321 6.1508125,37.6235472 C9.6166875,31.7953208 11.15625,28.0771321 11.526,25.2496604 L22.382625,25.2496604 C22.752375,28.0771321 24.2919375,31.7953208 27.7578125,37.6235472 C29.40575,40.3971321 31.52225,44.8961509 31.348,52.4075472 L31.348,52.4075472 Z" id="Fill-1" fill="#000000" mask="url(#mask-2)"></path>
            </g>
        </g>
    </g>
</svg>