<?xml version="1.0" encoding="UTF-8" standalone="no"?>
<svg width="21px" height="52px" viewBox="0 0 21 52" version="1.1" xmlns="http://www.w3.org/2000/svg" xmlns:xlink="http://www.w3.org/1999/xlink">
    <!-- Generator: Sketch 3.6.1 (26313) - http://www.bohemiancoding.com/sketch -->
    <title>Fill 5 + Fill 6 + Fill 7</title>
    <desc>Created with Sketch.</desc>
    <defs></defs>
    <g id="Page-1" stroke="none" stroke-width="1" fill="none" fill-rule="evenodd">
        <g id="WOMENS-SIX-CATEGORY" transform="translate(-302.000000, -122.000000)">
            <rect id="Rectangle-23" stroke="#979797" x="249.25816" y="73" width="125.74184" height="150"></rect>
            <g id="Fill-5-+-Fill-6-+-Fill-7" transform="translate(302.000000, 122.000000)" fill="#000000">
                <path d="M13.652846,28.3860856 C13.5225403,28.3860856 13.3908027,28.355142 13.2684749,28.2899975 L10.0754739,26.5952238 C9.90609694,26.5054466 9.7733365,26.3598894 9.7015354,26.1825744 L7.84370753,21.6149302 C7.67433058,21.1982093 7.87643738,20.723469 8.29517484,20.5549078 C8.71473055,20.3861429 9.19176806,20.5866657 9.36114501,21.0042009 L11.1070777,25.2974241 L14.0380354,26.8529515 C14.4367258,27.0644674 14.5876922,27.5575295 14.3751528,27.9551143 C14.2282776,28.2295353 13.945369,28.3860856 13.652846,28.3860856 L13.652846,28.3860856 Z" id="Fill-5"></path>
                <path d="M17.7825343,12.8499473 L17.4220969,12.8499473 L16.8620074,0.823059475 C16.8419604,0.388016661 16.4815229,0.0460082714 16.0445795,0.0460082714 L4.87592877,0.0460082714 C4.43878077,0.0460082714 4.0785479,0.388016661 4.05850087,0.823059475 L3.49841139,12.8499473 L3.22654911,12.8499473 C1.53421152,12.8499473 0.156694137,14.2200167 0.156694137,15.9052223 L0.156694137,35.8491972 C0.156694137,37.5344028 1.53421152,38.9044721 3.22654911,38.9044721 L3.49902507,38.9044721 L4.05850087,50.93136 C4.0785479,51.3664028 4.43878077,51.7084112 4.87592877,51.7084112 L16.0445795,51.7084112 C16.4815229,51.7084112 16.8419604,51.3664028 16.8620074,50.93136 L17.4220969,38.9044721 L17.7825343,38.9044721 C19.4756902,38.9044721 20.8525938,37.5344028 20.8525938,35.8491972 L20.8525938,15.9052223 C20.8525938,14.2200167 19.4756902,12.8499473 17.7825343,12.8499473 L17.7825343,12.8499473 Z M5.65735384,1.67461965 L15.2629499,1.67461965 L15.3860959,4.31398796 L5.53441235,4.31398796 L5.65735384,1.67461965 Z M5.45852002,5.94259934 L15.4619883,5.94259934 L15.5851343,8.58196765 L5.33537398,8.58196765 L5.45852002,5.94259934 Z M5.25948165,10.210579 L15.6610266,10.210579 L15.7839681,12.8499473 L5.13715385,12.8499473 L5.25948165,10.210579 Z M15.2637681,50.0797998 L5.65735384,50.0797998 L5.53441235,47.4404315 L15.3869142,47.4404315 L15.2637681,50.0797998 Z M15.4619883,45.8118201 L5.45852002,45.8118201 L5.33537398,43.1724518 L15.5851343,43.1724518 L15.4619883,45.8118201 Z M15.6610266,41.5438405 L5.25948165,41.5438405 L5.13633561,38.9044721 L15.7839681,38.9044721 L15.6610266,41.5438405 Z M19.2161016,35.8491972 C19.2161016,36.6358165 18.5735738,37.2758608 17.7825343,37.2758608 L3.22654911,37.2758608 C2.43632789,37.2758608 1.79318642,36.6358165 1.79318642,35.8491972 L1.79318642,15.9052223 C1.79318642,15.1179923 2.43632789,14.4777444 3.22654911,14.4777444 L17.7825343,14.4777444 C18.5735738,14.4777444 19.2161016,15.1179923 19.2161016,15.9052223 L19.2161016,35.8491972 Z" id="Fill-6"></path>
                <path d="M16.9250124,15.8726501 L4.08488931,15.8726501 C3.63260375,15.8726501 3.26664317,16.2368483 3.26664317,16.6869557 L3.26664317,35.0676673 C3.26664317,35.5177748 3.63260375,35.881973 4.08488931,35.881973 L16.9250124,35.881973 C17.3764797,35.881973 17.7432585,35.5177748 17.7432585,35.0676673 L17.7432585,16.6869557 C17.7432585,16.2368483 17.3764797,15.8726501 16.9250124,15.8726501 L16.9250124,15.8726501 Z M16.1067662,34.2533616 L11.2789094,34.2533616 L11.2789094,32.706588 C11.2789094,32.2572948 10.9121306,31.8922823 10.4606633,31.8922823 C10.0083777,31.8922823 9.64241712,32.2572948 9.64241712,32.706588 L9.64241712,34.2533616 L4.90313545,34.2533616 L4.90313545,17.5012614 L9.64241712,17.5012614 L9.64241712,19.0478315 C9.64241712,19.4971247 10.0083777,19.8621372 10.4606633,19.8621372 C10.9121306,19.8621372 11.2789094,19.4971247 11.2789094,19.0478315 L11.2789094,17.5012614 L16.1067662,17.5012614 L16.1067662,34.2533616 Z" id="Fill-7"></path>
            </g>
        </g>
    </g>
</svg>