<?xml version="1.0" encoding="UTF-8" standalone="no"?>
<svg width="58px" height="46px" viewBox="0 0 58 46" version="1.1" xmlns="http://www.w3.org/2000/svg" xmlns:xlink="http://www.w3.org/1999/xlink">
    <!-- Generator: Sketch 3.6.1 (26313) - http://www.bohemiancoding.com/sketch -->
    <title>high-heel (2)</title>
    <desc>Created with Sketch.</desc>
    <defs>
        <path id="path-1" d="M0,0.222466667 L57.9372973,0.222466667 L57.9372973,45.6558 L0,45.6558 L0,0.222466667 Z"></path>
    </defs>
    <g id="Page-1" stroke="none" stroke-width="1" fill="none" fill-rule="evenodd">
        <g id="WOMENS-SIX-CATEGORY" transform="translate(-35.000000, -263.000000)">
            <g id="high-heel-(2)" transform="translate(35.000000, 263.000000)">
                <mask id="mask-2" fill="white">
                    <use xlink:href="#path-1"></use>
                </mask>
                <g id="Clip-2"></g>
                <path d="M44.0564865,35.1043 C39.2142703,34.0640333 35.9443243,34.7001 32.5944324,31.6952333 C29.2147568,28.6606 9.67502703,3.3981 6.97410811,0.4794 C6.05551351,-0.5123 4.07254054,1.62306667 3.51448649,2.43773333 C-0.299405405,8.01193333 -0.887243243,12.8529333 1.16313514,18.4287 C2.06918919,20.8695667 2.48616216,39.3280333 2.67583784,45.0181667 C2.68210811,45.2516 2.87178378,45.4349 3.10378378,45.4349 L3.95027027,45.4349 C4.06627027,45.4349 4.176,45.3863333 4.25594595,45.3001667 C4.33589189,45.2202667 4.38448649,45.1106 4.37821622,44.9946667 C4.27475676,40.2633333 4.24340541,23.9794 4.97859459,22.8279 C5.8047027,21.5432333 11.879027,19.0099333 17.7511351,32.0634 C23.616973,45.1168667 26.4041081,45.4098333 30.518973,45.4098333 C34.6275676,45.4098333 46.6602162,45.7043667 55.4652432,44.0891333 C63.4316216,42.2765 50.6763243,36.5299667 44.0564865,35.1043 L44.0564865,35.1043 Z M30.8121081,37.1973667 C25.5278378,31.0403667 12.7615676,9.77443333 9.52767568,5.37523333 C9.47281081,5.29533333 9.41794595,5.21543333 9.36308108,5.13553333 C11.0952432,7.07663333 12.6377297,9.2731 14.2005946,11.1327333 C18.0944324,15.7653667 21.8487568,20.5217667 25.5215676,25.3251667 C27.7020541,28.1702333 29.5815676,31.3537 32.2699459,33.7648 C35.2216757,36.4140333 39.0857297,35.3800333 42.5563243,36.4203 C39.9306486,38.5008333 34.6401081,41.6655 30.8121081,37.1973667 L30.8121081,37.1973667 Z" id="Fill-1" fill="#000000" mask="url(#mask-2)"></path>
            </g>
        </g>
    </g>
</svg>