<?xml version="1.0" encoding="UTF-8" standalone="no"?>
<svg width="46px" height="62px" viewBox="0 0 46 62" version="1.1" xmlns="http://www.w3.org/2000/svg" xmlns:xlink="http://www.w3.org/1999/xlink">
    <!-- Generator: Sketch 3.6.1 (26313) - http://www.bohemiancoding.com/sketch -->
    <title>wedding12</title>
    <desc>Created with Sketch.</desc>
    <defs>
        <path id="path-1" d="M0.0977216749,0.567272183 L45.6034483,0.567272183 L45.6034483,61.9388242 L0.0977216749,61.9388242 L0.0977216749,0.567272183 Z"></path>
    </defs>
    <g id="Page-1" stroke="none" stroke-width="1" fill="none" fill-rule="evenodd">
        <g id="WOMENS-SIX-CATEGORY" transform="translate(-164.000000, -254.000000)">
            <g id="wedding12" transform="translate(164.000000, 254.000000)">
                <mask id="mask-2" fill="white">
                    <use xlink:href="#path-1"></use>
                </mask>
                <g id="Clip-2"></g>
                <path d="M26.1096028,15.5469069 L32.6748707,7.81077401 C32.8980018,7.55699435 32.98758,7.22028016 32.98758,6.87693121 L32.98758,1.91412895 C32.98758,1.13620306 32.4207943,0.567272183 31.6585653,0.567272183 L13.6468319,0.567272183 C12.8829741,0.567272183 12.2412685,1.13620306 12.2412685,1.91412895 L12.2412685,6.81887704 C12.2412685,7.16222599 12.3487623,7.48567065 12.5653787,7.74608508 L19.1941656,15.5402722 C8.32751539,17.2304779 0,26.7812183 0,38.3273636 C0,51.0528378 10.1353664,61.3748694 22.6307112,61.3748694 C35.1309421,61.3748694 45.2663085,51.0528378 45.2663085,38.3207288 C45.2663085,26.7944879 36.9567087,17.2503822 26.1096028,15.5469069 L26.1096028,15.5469069 Z M14.9888762,3.36548322 L30.2448584,3.36548322 L30.2448584,5.49026587 L14.9888762,5.49026587 L14.9888762,3.36548322 Z M28.6291933,8.29013559 L22.6616564,15.2815165 L22.6421121,15.2815165 L16.707149,8.29013559 L28.6291933,8.29013559 Z M22.6307112,56.9876328 C13.3666964,56.9876328 5.85352833,49.3360931 5.85352833,39.901461 C5.85352833,30.4618528 13.3666964,22.8103131 22.6307112,22.8103131 C31.8996121,22.8103131 39.4127802,30.4618528 39.4127802,39.901461 C39.4127802,49.3360931 31.8996121,56.9876328 22.6307112,56.9876328 L22.6307112,56.9876328 Z" id="Fill-1" fill="#000000" mask="url(#mask-2)"></path>
            </g>
        </g>
    </g>
</svg>