<?xml version="1.0" encoding="UTF-8" standalone="no"?>
<svg width="83px" height="29px" viewBox="0 0 83 29" version="1.1" xmlns="http://www.w3.org/2000/svg" xmlns:xlink="http://www.w3.org/1999/xlink">
    <!-- Generator: Sketch 3.6.1 (26313) - http://www.bohemiancoding.com/sketch -->
    <title>woman18</title>
    <desc>Created with Sketch.</desc>
    <defs>
        <path id="path-1" d="M0,0.178767977 L82.5920083,0.178767977 L82.5920083,29.0657788 L0,29.0657788 L0,0.178767977 Z"></path>
    </defs>
    <g id="Page-1" stroke="none" stroke-width="1" fill="none" fill-rule="evenodd">
        <g id="WOMENS-SIX-CATEGORY" transform="translate(-271.000000, -274.000000)">
            <g id="woman18" transform="translate(271.000000, 274.000000)">
                <g id="Group-4"></g>
                <mask id="mask-2" fill="white">
                    <use xlink:href="#path-1"></use>
                </mask>
                <g id="Clip-2"></g>
                <path d="M30.8319764,6.83343552 C26.7417734,5.69950195 22.706157,5.14828096 18.4972872,5.14828096 C15.6027696,5.14828096 12.6019266,5.42199722 9.57687563,5.96232639 C9.09746225,6.04827709 8.72484888,6.42925414 8.65151287,6.91015184 C8.59597687,7.27455438 7.33787274,15.892118 11.6739532,20.9265083 C13.6606707,23.2341543 16.4697483,24.4040783 20.0212047,24.4040783 L20.0380554,24.4040783 C28.9221549,24.4040783 32.2040006,16.9926657 33.4426434,14.1818649 C33.6142354,13.8174623 34.7451288,11.2583573 33.7523634,9.11337836 C33.3899554,8.3308245 32.5880059,7.30060004 30.8319764,6.83343552 L30.8319764,6.83343552 Z M13.0644893,9.06152381 C12.9940013,10.105955 12.9735906,11.0890605 13.002308,11.984321 C13.0227186,12.611548 12.5295399,13.1367234 11.9010812,13.1570863 L11.8628705,13.1570863 C11.2510251,13.1570863 10.7447931,12.6724002 10.7253317,12.0584328 C10.6940037,11.0881134 10.7160757,10.0290019 10.7913104,8.90903828 C10.8337931,8.28275841 11.3763371,7.80730663 12.0047959,7.85087392 C12.6315933,7.8934941 13.1072093,8.43548072 13.0644893,9.06152381 L13.0644893,9.06152381 Z" id="Fill-1" fill="#000000" mask="url(#mask-2)"></path>
                <path d="M81.5686269,1.93874463 C70.3888018,-0.621307512 59.5298513,-0.396604452 46.3597487,2.66589226 L46.08729,2.72958575 C44.5529298,3.08759526 42.5346469,3.51498095 41.2264655,3.51498095 C39.896212,3.51498095 37.9000011,3.08759526 36.3658783,2.72958575 L36.0931823,2.66589226 C22.9230796,-0.396604452 12.0641292,-0.621307512 0.884541422,1.93874463 C0.303074697,2.07205108 -0.0768960077,2.6296651 0.0130533346,3.21806036 L0.812154748,8.43997952 C0.864130754,8.77857317 1.06610144,9.07549376 1.36276814,9.24928938 C1.6584855,9.42237467 2.01733354,9.45291913 2.33892024,9.3316884 C2.79246428,9.16239157 3.15202432,9.16144446 3.40620834,9.32884705 C3.70833371,9.52868834 3.91600039,9.98567138 3.93641106,10.492378 C4.19415509,16.9502823 5.45486988,21.3306897 7.90343813,24.2792958 C10.4723344,27.3730473 14.4125428,28.8806178 19.9471567,28.8872476 L19.9711273,28.8872476 C30.9803098,28.8872476 35.3061849,21.0070131 38.1688998,15.7912502 C38.5676199,15.0671807 38.9430813,14.3826533 39.3054893,13.7722376 C39.319492,13.7480862 39.3332573,13.7241715 39.3453613,13.6990729 C39.982364,12.4244928 40.7055188,11.9712982 41.1754388,11.9712982 L41.1884921,11.9712982 L41.2264655,11.9712982 L41.2644388,11.9712982 L41.2774922,11.9712982 C41.7474122,11.9712982 42.4705669,12.4244928 43.1075697,13.6990729 C43.1196737,13.7241715 43.1324897,13.7480862 43.1464923,13.7722376 C43.5098497,14.3826533 43.8853111,15.0671807 44.2830818,15.7912502 C47.1467461,21.0070131 51.4707225,28.8881947 62.4818036,28.8872476 L62.5057743,28.8872476 C68.0406255,28.8806178 71.9796472,27.3730473 74.5485435,24.2792958 C76.9980611,21.3306897 78.2578265,16.9502823 78.5165199,10.492378 C78.5369306,9.98567138 78.7445973,9.52868834 79.0460106,9.32884705 C79.3009067,9.16049734 79.6597547,9.16239157 80.1140107,9.3316884 C80.4355974,9.45291913 80.7944455,9.42237467 81.0901628,9.24928938 C81.3868295,9.07644087 81.5888002,8.77857317 81.6407762,8.43997952 L82.4398776,3.21806036 C82.529827,2.6296651 82.1498563,2.07205108 81.5686269,1.93874463 L81.5686269,1.93874463 Z M79.566008,6.93335616 C78.9197493,6.91938621 78.3098026,7.08963015 77.7869572,7.43461683 C76.8682397,8.04337507 76.289621,9.15221008 76.2395437,10.4026388 C76.0022103,16.3351311 74.9083409,20.2846011 72.79465,22.8299729 C70.6548524,25.4058893 67.3851108,26.6082519 62.5029263,26.6136978 L62.4818036,26.6136978 C58.2114645,26.6136978 54.7388028,25.3123616 51.8675439,22.6339201 C49.348725,20.2855482 47.7187195,17.3175262 46.2819033,14.6989897 C45.882234,13.9701846 45.5032126,13.2821055 45.1277512,12.6475384 C43.7666444,9.95323269 41.9496202,9.68780368 41.2312122,9.69893228 L41.2293135,9.69893228 C40.5116174,9.68875079 38.6900839,9.94778678 37.3254171,12.6475384 C36.9499557,13.2821055 36.5716463,13.9701846 36.1710276,14.6989897 C34.7342115,17.3175262 33.1051553,20.2855482 30.5853871,22.6339201 C27.7096188,25.3170972 24.2265144,26.6184334 19.9500047,26.6136978 C15.0678202,26.6082519 11.7971292,25.4058893 9.65828097,22.8299729 C7.54459009,20.2846011 6.45072065,16.3351311 6.21338729,10.4026388 C6.16330995,9.15221008 5.58469123,8.04337507 4.6659738,7.43461683 C4.14312842,7.08868304 3.53413102,6.91938621 2.88692296,6.93335616 L2.42625891,3.92555535 C12.8909986,1.69273148 23.1677703,1.99438764 35.5757956,4.87906349 L35.8475423,4.94299376 C37.4903638,5.32586504 39.911876,5.77811251 41.2255162,5.77811251 C42.611543,5.77811251 44.9625672,5.32586504 46.6053887,4.94299376 L46.8771354,4.87906349 C59.2851606,1.99438764 69.5619323,1.69273148 80.0266721,3.92555535 L79.566008,6.93335616 Z" id="Fill-3" fill="#000000" mask="url(#mask-2)"></path>
                <path d="M51.6321092,6.82988383 C49.864925,7.30060004 49.0632129,8.3308245 48.7005676,9.11337836 C47.7078021,11.2583573 48.8386956,13.8174623 49.0102876,14.1818649 C50.2489304,16.9926657 53.5307761,24.4040783 62.415825,24.4040783 L62.430777,24.4040783 C65.98342,24.4040783 68.7922603,23.2341543 70.7799271,20.9265083 C75.1150582,15.8930651 73.8569541,7.27455438 73.8014181,6.91015184 C73.7280821,6.42925414 73.3564181,6.04827709 72.8760553,5.96232639 C69.8510044,5.42294434 66.8501614,5.14922807 63.9558811,5.14922807 C59.746774,5.14828096 55.7111576,5.69950195 51.6321092,6.82988383 L51.6321092,6.82988383 Z M62.415825,23.266593 L62.415825,23.2673033 L62.415825,23.266593 Z" id="Fill-5" fill="#000000" mask="url(#mask-2)"></path>
            </g>
        </g>
    </g>
</svg>